<?xml version="1.0" encoding="UTF-8"?>
<svg id="Layer_1" data-name="Layer 1" xmlns="http://www.w3.org/2000/svg" viewBox="0 0 400 400">
  <defs>
    <style>
      .cls-1 {
        fill: #ff7e3e;
      }

      .cls-2 {
        fill: #c10230;
      }
    </style>
  </defs>
  <rect class="cls-2" width="400" height="400"/>
  <g>
    <path class="cls-1" d="M27.77,180c1.36,2.62,3.17,4.75,5.43,6.37,2.25,1.63,4.9,2.83,7.94,3.62,3.04,.79,6.19,1.18,9.44,1.18,2.2,0,4.56-.18,7.08-.55,2.52-.37,4.88-1.07,7.08-2.12,2.2-1.05,4.04-2.49,5.51-4.33,1.47-1.83,2.2-4.17,2.2-7,0-3.04-.97-5.5-2.91-7.39-1.94-1.89-4.48-3.46-7.63-4.72-3.15-1.26-6.71-2.36-10.7-3.3-3.99-.94-8.02-1.99-12.11-3.15-4.2-1.05-8.29-2.33-12.27-3.85-3.99-1.52-7.55-3.49-10.7-5.9-3.15-2.41-5.69-5.43-7.63-9.04-1.94-3.62-2.91-8-2.91-13.13,0-5.77,1.23-10.77,3.7-15.02,2.46-4.25,5.69-7.79,9.67-10.62,3.98-2.83,8.49-4.93,13.53-6.29,5.03-1.36,10.07-2.04,15.1-2.04,5.87,0,11.51,.66,16.91,1.97,5.4,1.31,10.2,3.44,14.39,6.37,4.19,2.94,7.52,6.69,9.99,11.25,2.46,4.56,3.7,10.09,3.7,16.59h-23.91c-.21-3.35-.92-6.13-2.12-8.34-1.21-2.2-2.81-3.93-4.8-5.19-1.99-1.26-4.27-2.15-6.84-2.67-2.57-.52-5.38-.79-8.42-.79-1.99,0-3.99,.21-5.98,.63-1.99,.42-3.8,1.16-5.43,2.2-1.63,1.05-2.96,2.36-4.01,3.93-1.05,1.57-1.57,3.57-1.57,5.98,0,2.2,.42,3.99,1.26,5.35,.84,1.36,2.49,2.62,4.96,3.78,2.46,1.15,5.87,2.31,10.22,3.46,4.35,1.16,10.04,2.62,17.07,4.4,2.1,.42,5.01,1.18,8.73,2.28,3.72,1.1,7.42,2.86,11.09,5.27,3.67,2.41,6.84,5.64,9.52,9.67,2.67,4.04,4.01,9.2,4.01,15.49,0,5.14-1,9.91-2.99,14.31-1.99,4.4-4.96,8.21-8.89,11.4-3.93,3.2-8.81,5.69-14.63,7.47s-12.56,2.67-20.21,2.67c-6.19,0-12.19-.76-18.01-2.28-5.82-1.52-10.96-3.91-15.42-7.16-4.46-3.25-8-7.39-10.62-12.43-2.62-5.03-3.88-11.01-3.78-17.93H25.72c0,3.78,.68,6.98,2.04,9.6Z"/>
    <path class="cls-1" d="M157.38,207.68v-11.33h-.47c-2.83,4.72-6.5,8.13-11.01,10.22-4.51,2.1-9.12,3.15-13.84,3.15-5.98,0-10.88-.79-14.71-2.36-3.83-1.57-6.84-3.8-9.04-6.69-2.2-2.88-3.75-6.4-4.64-10.54-.89-4.14-1.34-8.73-1.34-13.76v-50.02h22.34v45.93c0,6.71,1.05,11.72,3.15,15.02,2.1,3.3,5.82,4.96,11.17,4.96,6.08,0,10.48-1.81,13.21-5.43,2.73-3.62,4.09-9.57,4.09-17.85v-42.63h22.34v81.32h-21.24Z"/>
    <path class="cls-1" d="M228.17,140.99c-3.57,0-6.56,.81-8.97,2.44-2.41,1.63-4.38,3.72-5.9,6.29-1.52,2.57-2.6,5.4-3.22,8.49-.63,3.09-.94,6.16-.94,9.2s.31,5.93,.94,8.97c.63,3.04,1.65,5.8,3.07,8.26,1.42,2.47,3.33,4.48,5.74,6.06,2.41,1.57,5.35,2.36,8.81,2.36,5.35,0,9.46-1.49,12.35-4.48,2.88-2.99,4.69-7,5.43-12.03h21.55c-1.47,10.8-5.66,19.03-12.58,24.7-6.92,5.66-15.78,8.49-26.58,8.49-6.08,0-11.67-1.02-16.75-3.07-5.09-2.04-9.41-4.9-12.98-8.57-3.57-3.67-6.35-8.05-8.34-13.13-1.99-5.09-2.99-10.67-2.99-16.75s.92-12.14,2.75-17.54c1.83-5.4,4.53-10.07,8.1-14,3.56-3.93,7.92-7,13.06-9.2,5.14-2.2,11.01-3.3,17.62-3.3,4.82,0,9.46,.63,13.92,1.89,4.46,1.26,8.44,3.17,11.96,5.74,3.51,2.57,6.37,5.77,8.57,9.6,2.2,3.83,3.46,8.36,3.78,13.61h-21.86c-1.47-9.33-6.98-14-16.52-14Z"/>
    <path class="cls-1" d="M320.5,155.15v19.19h-47.35v-19.19h47.35Z"/>
    <path class="cls-1" d="M45.39,255.82c-3.57,0-6.56,.81-8.97,2.44-2.41,1.63-4.38,3.72-5.9,6.29-1.52,2.57-2.6,5.4-3.22,8.49-.63,3.09-.94,6.16-.94,9.2s.31,5.93,.94,8.97c.63,3.04,1.65,5.8,3.07,8.26,1.42,2.47,3.33,4.48,5.74,6.06,2.41,1.57,5.35,2.36,8.81,2.36,5.35,0,9.46-1.49,12.35-4.48,2.88-2.99,4.69-7,5.43-12.03h21.55c-1.47,10.8-5.66,19.03-12.58,24.7-6.92,5.66-15.78,8.49-26.58,8.49-6.08,0-11.67-1.02-16.75-3.07-5.09-2.04-9.41-4.9-12.98-8.57-3.57-3.67-6.35-8.05-8.34-13.13-1.99-5.09-2.99-10.67-2.99-16.75s.92-12.14,2.75-17.54c1.83-5.4,4.53-10.07,8.1-14,3.56-3.93,7.92-7,13.06-9.2,5.14-2.2,11.01-3.3,17.62-3.3,4.82,0,9.46,.63,13.92,1.89,4.46,1.26,8.44,3.17,11.96,5.74,3.51,2.57,6.37,5.77,8.57,9.6,2.2,3.83,3.46,8.36,3.78,13.61h-21.86c-1.47-9.33-6.98-14-16.52-14Z"/>
    <path class="cls-1" d="M114.44,303.01c3.35,3.25,8.18,4.88,14.47,4.88,4.51,0,8.39-1.13,11.64-3.38,3.25-2.25,5.24-4.64,5.98-7.16h19.66c-3.15,9.75-7.97,16.73-14.47,20.92-6.5,4.2-14.37,6.29-23.59,6.29-6.4,0-12.17-1.02-17.3-3.07-5.14-2.04-9.49-4.96-13.06-8.73-3.57-3.77-6.32-8.28-8.26-13.53-1.94-5.24-2.91-11.01-2.91-17.3s1-11.74,2.99-16.99c1.99-5.24,4.82-9.78,8.49-13.61,3.67-3.83,8.05-6.84,13.13-9.04,5.09-2.2,10.72-3.3,16.91-3.3,6.92,0,12.95,1.34,18.09,4.01,5.14,2.67,9.36,6.27,12.66,10.78,3.3,4.51,5.69,9.65,7.16,15.42,1.47,5.77,1.99,11.8,1.57,18.09h-58.67c.31,7.24,2.15,12.48,5.51,15.73Zm25.25-42.79c-2.67-2.93-6.74-4.4-12.19-4.4-3.57,0-6.53,.6-8.89,1.81-2.36,1.21-4.25,2.7-5.66,4.48-1.42,1.78-2.41,3.67-2.99,5.66-.58,1.99-.92,3.78-1.02,5.35h36.34c-1.05-5.66-2.91-9.96-5.58-12.9Z"/>
    <path class="cls-1" d="M193.33,302.3c1,1.73,2.28,3.15,3.85,4.25,1.57,1.1,3.38,1.91,5.43,2.44,2.04,.53,4.17,.79,6.37,.79,1.57,0,3.22-.18,4.95-.55,1.73-.37,3.3-.94,4.72-1.73,1.42-.79,2.59-1.83,3.54-3.15,.94-1.31,1.42-2.96,1.42-4.96,0-3.36-2.23-5.87-6.69-7.55-4.46-1.68-10.67-3.35-18.64-5.03-3.25-.73-6.42-1.6-9.52-2.6-3.09-1-5.85-2.31-8.26-3.93-2.41-1.62-4.35-3.67-5.82-6.13-1.47-2.46-2.2-5.48-2.2-9.04,0-5.24,1.02-9.54,3.07-12.9,2.04-3.35,4.74-6,8.1-7.94,3.36-1.94,7.13-3.3,11.33-4.09,4.19-.79,8.49-1.18,12.9-1.18s8.68,.42,12.82,1.26c4.14,.84,7.84,2.26,11.09,4.25,3.25,1.99,5.95,4.64,8.1,7.94,2.15,3.3,3.43,7.47,3.85,12.5h-21.24c-.31-4.3-1.94-7.21-4.88-8.73-2.94-1.52-6.4-2.28-10.38-2.28-1.26,0-2.62,.08-4.09,.24-1.47,.16-2.81,.5-4.01,1.02-1.21,.53-2.23,1.29-3.07,2.28-.84,1-1.26,2.33-1.26,4.01,0,1.99,.73,3.62,2.2,4.88,1.47,1.26,3.38,2.28,5.74,3.07s5.06,1.49,8.1,2.12c3.04,.63,6.13,1.31,9.28,2.04,3.25,.73,6.42,1.63,9.52,2.67,3.09,1.05,5.84,2.44,8.26,4.17,2.41,1.73,4.35,3.88,5.82,6.45,1.47,2.57,2.2,5.74,2.2,9.52,0,5.35-1.08,9.83-3.22,13.45-2.15,3.62-4.96,6.53-8.42,8.73-3.46,2.2-7.42,3.75-11.88,4.64-4.46,.89-8.99,1.34-13.61,1.34s-9.33-.47-13.84-1.42c-4.51-.94-8.52-2.52-12.03-4.72-3.51-2.2-6.4-5.11-8.65-8.73-2.26-3.62-3.49-8.15-3.7-13.61h21.24c0,2.41,.5,4.48,1.5,6.21Z"/>
    <path class="cls-1" d="M271.5,302.3c1,1.73,2.28,3.15,3.85,4.25,1.57,1.1,3.38,1.91,5.43,2.44,2.04,.53,4.17,.79,6.37,.79,1.57,0,3.22-.18,4.95-.55,1.73-.37,3.3-.94,4.72-1.73,1.42-.79,2.59-1.83,3.54-3.15,.94-1.31,1.42-2.96,1.42-4.96,0-3.36-2.23-5.87-6.69-7.55-4.46-1.68-10.67-3.35-18.64-5.03-3.25-.73-6.42-1.6-9.52-2.6-3.09-1-5.85-2.31-8.26-3.93-2.41-1.62-4.35-3.67-5.82-6.13-1.47-2.46-2.2-5.48-2.2-9.04,0-5.24,1.02-9.54,3.07-12.9,2.04-3.35,4.74-6,8.1-7.94,3.36-1.94,7.13-3.3,11.33-4.09,4.19-.79,8.49-1.18,12.9-1.18s8.68,.42,12.82,1.26c4.14,.84,7.84,2.26,11.09,4.25,3.25,1.99,5.95,4.64,8.1,7.94,2.15,3.3,3.43,7.47,3.85,12.5h-21.24c-.31-4.3-1.94-7.21-4.88-8.73-2.94-1.52-6.4-2.28-10.38-2.28-1.26,0-2.62,.08-4.09,.24-1.47,.16-2.81,.5-4.01,1.02-1.21,.53-2.23,1.29-3.07,2.28-.84,1-1.26,2.33-1.26,4.01,0,1.99,.73,3.62,2.2,4.88,1.47,1.26,3.38,2.28,5.74,3.07s5.06,1.49,8.1,2.12c3.04,.63,6.13,1.31,9.28,2.04,3.25,.73,6.42,1.63,9.52,2.67,3.09,1.05,5.84,2.44,8.26,4.17,2.41,1.73,4.35,3.88,5.82,6.45,1.47,2.57,2.2,5.74,2.2,9.52,0,5.35-1.08,9.83-3.22,13.45-2.15,3.62-4.96,6.53-8.42,8.73-3.46,2.2-7.42,3.75-11.88,4.64-4.46,.89-8.99,1.34-13.61,1.34s-9.33-.47-13.84-1.42c-4.51-.94-8.52-2.52-12.03-4.72-3.51-2.2-6.4-5.11-8.65-8.73-2.26-3.62-3.49-8.15-3.7-13.61h21.24c0,2.41,.5,4.48,1.5,6.21Z"/>
  </g>
  <g>
    <path class="cls-1" d="M111.52,98.15c-1-.7-2.19-1.05-3.56-1.05-1.17,0-2.18,.22-3.01,.66s-1.52,1.03-2.06,1.78c-.54,.74-.94,1.59-1.2,2.55-.26,.95-.39,1.95-.39,2.97,0,1.12,.13,2.18,.39,3.18,.26,1,.66,1.87,1.2,2.61,.54,.74,1.23,1.34,2.08,1.78,.84,.44,1.85,.66,3.03,.66,.86,0,1.63-.14,2.3-.43,.67-.28,1.25-.68,1.73-1.18s.87-1.11,1.14-1.8,.44-1.45,.5-2.26h2.62c-.26,2.48-1.11,4.4-2.56,5.78-1.45,1.38-3.43,2.06-5.95,2.06-1.52,0-2.85-.26-3.99-.78-1.14-.52-2.08-1.24-2.83-2.16-.75-.92-1.32-2-1.69-3.25s-.56-2.59-.56-4.02,.2-2.78,.61-4.03,1-2.35,1.78-3.29c.78-.94,1.75-1.67,2.92-2.22,1.17-.54,2.5-.81,4.01-.81,1.03,0,2,.14,2.92,.41,.92,.28,1.73,.68,2.45,1.21s1.31,1.2,1.79,2c.48,.8,.79,1.72,.94,2.77h-2.62c-.29-1.39-.94-2.44-1.94-3.14Z"/>
    <path class="cls-1" d="M118.44,104.99c.29-.91,.73-1.7,1.32-2.37,.59-.67,1.31-1.2,2.17-1.58,.86-.38,1.85-.58,2.97-.58s2.13,.19,2.99,.58c.85,.39,1.57,.91,2.16,1.58s1.03,1.46,1.32,2.37c.29,.91,.44,1.89,.44,2.93s-.15,2.02-.44,2.92c-.29,.9-.73,1.68-1.32,2.35-.59,.67-1.31,1.19-2.16,1.57-.85,.38-1.85,.56-2.99,.56s-2.11-.19-2.97-.56c-.86-.38-1.59-.9-2.17-1.57-.59-.67-1.03-1.45-1.32-2.35-.29-.9-.44-1.87-.44-2.92s.15-2.02,.44-2.93Zm2.38,5.23c.23,.67,.55,1.23,.95,1.68,.4,.45,.88,.79,1.42,1.03s1.12,.36,1.72,.36,1.18-.12,1.72-.36c.54-.24,1.01-.58,1.42-1.03,.4-.45,.72-1.01,.95-1.68s.34-1.44,.34-2.3-.11-1.63-.34-2.3-.55-1.23-.95-1.69c-.4-.46-.88-.81-1.42-1.05-.54-.24-1.12-.36-1.72-.36s-1.18,.12-1.72,.36-1.01,.59-1.42,1.05c-.4,.46-.72,1.02-.95,1.69s-.34,1.44-.34,2.3,.11,1.63,.34,2.3Z"/>
    <path class="cls-1" d="M136.69,95.37v19.65h-2.34v-19.65h2.34Z"/>
    <path class="cls-1" d="M142.45,95.37v19.65h-2.34v-19.65h2.34Z"/>
    <path class="cls-1" d="M155.8,114.12c-1.06,.81-2.4,1.21-4.02,1.21-1.14,0-2.12-.18-2.96-.55-.83-.37-1.54-.88-2.11-1.54-.57-.66-1-1.45-1.28-2.37-.29-.92-.45-1.92-.48-3,0-1.08,.17-2.07,.5-2.97s.79-1.68,1.39-2.34c.6-.66,1.3-1.17,2.12-1.54,.82-.37,1.71-.55,2.68-.55,1.27,0,2.32,.26,3.15,.79,.83,.52,1.5,1.19,2.01,2,.5,.81,.85,1.69,1.05,2.64s.27,1.86,.23,2.72h-10.65c-.02,.62,.05,1.22,.22,1.78,.17,.56,.43,1.06,.8,1.49,.37,.43,.83,.78,1.4,1.03,.57,.26,1.24,.38,2.01,.38,.99,0,1.8-.23,2.44-.69,.63-.46,1.05-1.16,1.25-2.09h2.31c-.31,1.6-1,2.8-2.06,3.61Zm-.56-9.14c-.21-.5-.5-.92-.85-1.28-.36-.36-.78-.64-1.27-.85-.49-.21-1.02-.32-1.61-.32s-1.15,.11-1.64,.32-.9,.5-1.25,.87-.62,.79-.83,1.28c-.2,.49-.32,1-.36,1.56h8.18c-.04-.55-.16-1.07-.37-1.57Z"/>
    <path class="cls-1" d="M170.83,119.05c-1.06,1.16-2.73,1.73-5.01,1.73-.66,0-1.33-.07-2.02-.22-.69-.15-1.31-.39-1.87-.72s-1.02-.76-1.39-1.29c-.37-.53-.57-1.18-.61-1.95h2.34c.02,.42,.15,.78,.4,1.07,.25,.29,.55,.53,.91,.72,.36,.18,.75,.32,1.17,.4,.42,.08,.83,.12,1.21,.12,.77,0,1.42-.13,1.95-.4,.53-.27,.97-.63,1.32-1.1s.6-1.03,.76-1.69c.16-.66,.23-1.39,.23-2.17v-.94h-.05c-.4,.88-1.01,1.53-1.83,1.94s-1.68,.62-2.6,.62c-1.06,0-1.99-.19-2.78-.58s-1.45-.9-1.98-1.56c-.53-.65-.93-1.41-1.2-2.28-.27-.87-.4-1.79-.4-2.77,0-.84,.11-1.71,.33-2.6,.22-.89,.59-1.7,1.1-2.42,.51-.72,1.19-1.32,2.04-1.79,.84-.47,1.88-.7,3.11-.7,.9,0,1.72,.2,2.48,.59,.75,.4,1.34,.99,1.76,1.78h.03v-2.04h2.2v13.02c0,2.33-.53,4.07-1.6,5.23Zm-2.99-6.4c.54-.32,.98-.74,1.31-1.27,.33-.52,.57-1.12,.73-1.78,.16-.66,.23-1.32,.23-1.98,0-.62-.07-1.24-.22-1.84-.15-.61-.38-1.15-.7-1.64-.32-.49-.74-.88-1.25-1.17-.51-.29-1.14-.44-1.87-.44s-1.4,.14-1.93,.43c-.53,.29-.97,.67-1.31,1.14-.34,.48-.59,1.03-.74,1.65s-.23,1.28-.23,1.95c0,.64,.06,1.29,.19,1.93,.13,.64,.35,1.22,.66,1.75,.31,.52,.72,.95,1.24,1.27s1.16,.48,1.93,.48,1.43-.16,1.97-.48Z"/>
    <path class="cls-1" d="M185.66,114.12c-1.06,.81-2.4,1.21-4.02,1.21-1.14,0-2.12-.18-2.96-.55-.83-.37-1.54-.88-2.11-1.54-.57-.66-1-1.45-1.28-2.37-.29-.92-.45-1.92-.48-3,0-1.08,.17-2.07,.5-2.97s.79-1.68,1.39-2.34c.6-.66,1.3-1.17,2.12-1.54,.82-.37,1.71-.55,2.68-.55,1.27,0,2.32,.26,3.15,.79,.83,.52,1.5,1.19,2.01,2,.5,.81,.85,1.69,1.05,2.64s.27,1.86,.23,2.72h-10.65c-.02,.62,.05,1.22,.22,1.78,.17,.56,.43,1.06,.8,1.49,.37,.43,.83,.78,1.4,1.03,.57,.26,1.24,.38,2.01,.38,.99,0,1.8-.23,2.44-.69,.63-.46,1.05-1.16,1.25-2.09h2.31c-.31,1.6-1,2.8-2.06,3.61Zm-.56-9.14c-.21-.5-.5-.92-.85-1.28-.36-.36-.78-.64-1.27-.85-.49-.21-1.02-.32-1.61-.32s-1.15,.11-1.64,.32-.9,.5-1.25,.87-.62,.79-.83,1.28c-.2,.49-.32,1-.36,1.56h8.18c-.04-.55-.16-1.07-.37-1.57Z"/>
  </g>
  <g>
    <path class="cls-1" d="M141.07,369.96c0-4.09,.6-7.93,1.81-11.52,1.21-3.59,2.95-6.71,5.23-9.36,2.28-2.65,5.09-4.73,8.42-6.25,3.33-1.52,7.09-2.28,11.29-2.28,3.3,0,6.16,.43,8.57,1.3,2.41,.87,4.44,1.94,6.09,3.22,1.65,1.29,3,2.69,4.05,4.21,1.05,1.52,1.85,2.95,2.4,4.29,.55,1.34,.93,2.49,1.14,3.46,.21,.97,.31,1.51,.31,1.61h-3.46c-.37-2.36-1.13-4.47-2.28-6.33-1.15-1.86-2.6-3.45-4.33-4.76-1.73-1.31-3.66-2.31-5.78-2.99-2.12-.68-4.37-1.02-6.72-1.02-3.67,0-6.95,.71-9.83,2.12-2.88,1.42-5.32,3.32-7.31,5.7-1.99,2.39-3.51,5.18-4.56,8.38-1.05,3.2-1.57,6.61-1.57,10.22s.52,7.03,1.57,10.22c1.05,3.2,2.57,5.99,4.56,8.38,1.99,2.39,4.43,4.29,7.31,5.7,2.88,1.42,6.16,2.12,9.83,2.12,2.73,0,5.28-.56,7.67-1.69,2.38-1.13,4.47-2.62,6.25-4.48,1.78-1.86,3.21-4.01,4.29-6.45,1.07-2.44,1.69-4.97,1.85-7.59h3.46c-.31,3.36-1.14,6.45-2.48,9.28s-3.04,5.28-5.11,7.35-4.47,3.68-7.2,4.84c-2.73,1.15-5.64,1.73-8.73,1.73-4.2,0-7.96-.76-11.29-2.28-3.33-1.52-6.13-3.6-8.42-6.25-2.28-2.65-4.02-5.77-5.23-9.36-1.21-3.59-1.81-7.43-1.81-11.52Z"/>
    <path class="cls-1" d="M192.19,377.83c0-2.88,.41-5.6,1.22-8.14,.81-2.54,2-4.78,3.58-6.72,1.57-1.94,3.51-3.47,5.82-4.6,2.31-1.13,4.96-1.69,7.94-1.69s5.64,.56,7.94,1.69c2.31,1.13,4.25,2.66,5.82,4.6,1.57,1.94,2.77,4.18,3.58,6.72,.81,2.54,1.22,5.26,1.22,8.14s-.41,5.61-1.22,8.18c-.81,2.57-2.01,4.81-3.58,6.72s-3.51,3.43-5.82,4.56c-2.31,1.13-4.95,1.69-7.94,1.69s-5.64-.56-7.94-1.69c-2.31-1.13-4.25-2.65-5.82-4.56s-2.77-4.16-3.58-6.72c-.81-2.57-1.22-5.3-1.22-8.18Zm2.99,0c0,2.41,.34,4.73,1.02,6.96,.68,2.23,1.68,4.21,2.99,5.94,1.31,1.73,2.94,3.11,4.88,4.13,1.94,1.02,4.17,1.53,6.69,1.53s4.75-.51,6.69-1.53c1.94-1.02,3.56-2.4,4.88-4.13,1.31-1.73,2.31-3.71,2.99-5.94,.68-2.23,1.02-4.55,1.02-6.96s-.34-4.73-1.02-6.96c-.68-2.23-1.68-4.21-2.99-5.94-1.31-1.73-2.94-3.11-4.88-4.13-1.94-1.02-4.17-1.53-6.69-1.53s-4.75,.51-6.69,1.53c-1.94,1.02-3.57,2.4-4.88,4.13-1.31,1.73-2.31,3.71-2.99,5.94-.68,2.23-1.02,4.55-1.02,6.96Z"/>
    <path class="cls-1" d="M232.38,357.61h2.99v8.65h.16c.52-1.52,1.27-2.87,2.24-4.05,.97-1.18,2.1-2.19,3.38-3.03,1.28-.84,2.69-1.47,4.21-1.89,1.52-.42,3.07-.63,4.64-.63,2.36,0,4.36,.29,6.02,.87,1.65,.58,3,1.34,4.05,2.28,1.05,.94,1.87,2,2.48,3.18,.6,1.18,1.04,2.37,1.3,3.58,.26,1.21,.42,2.37,.47,3.5,.05,1.13,.08,2.11,.08,2.95v25.01h-2.99v-25.56c0-1-.08-2.25-.24-3.78-.16-1.52-.62-2.97-1.38-4.36-.76-1.39-1.91-2.58-3.46-3.58-1.55-1-3.68-1.49-6.41-1.49-2.31,0-4.35,.42-6.13,1.26-1.78,.84-3.3,2-4.56,3.5-1.26,1.5-2.22,3.28-2.87,5.35-.66,2.07-.98,4.34-.98,6.8v21.86h-2.99v-40.43Z"/>
    <path class="cls-1" d="M299.7,370.12c-.16-1.78-.62-3.35-1.38-4.72-.76-1.36-1.74-2.49-2.95-3.38-1.21-.89-2.61-1.57-4.21-2.04-1.6-.47-3.32-.71-5.15-.71-2.52,0-4.75,.51-6.69,1.53-1.94,1.02-3.57,2.39-4.88,4.09-1.31,1.71-2.31,3.65-2.99,5.82-.68,2.18-1.02,4.42-1.02,6.72,0,2.73,.31,5.24,.94,7.55,.63,2.31,1.6,4.31,2.91,6.02,1.31,1.7,2.94,3.03,4.88,3.97,1.94,.94,4.22,1.42,6.84,1.42,1.89,0,3.63-.31,5.23-.94,1.6-.63,3.01-1.49,4.25-2.59,1.23-1.1,2.24-2.42,3.03-3.97,.79-1.55,1.31-3.24,1.57-5.07h2.99c-.31,2.41-.97,4.56-1.97,6.45-1,1.89-2.25,3.47-3.78,4.76-1.52,1.29-3.25,2.27-5.19,2.95-1.94,.68-3.99,1.02-6.13,1.02-3.3,0-6.12-.59-8.46-1.77-2.33-1.18-4.25-2.76-5.74-4.76-1.5-1.99-2.6-4.29-3.3-6.88s-1.06-5.31-1.06-8.14,.41-5.51,1.22-8.02c.81-2.52,2.01-4.72,3.58-6.61,1.57-1.89,3.51-3.38,5.82-4.48,2.31-1.1,4.96-1.65,7.94-1.65,2.2,0,4.26,.28,6.17,.83,1.91,.55,3.62,1.38,5.11,2.48,1.49,1.1,2.71,2.5,3.66,4.21,.94,1.7,1.52,3.68,1.73,5.94h-2.99Z"/>
    <path class="cls-1" d="M306.86,349.98v-8.1h2.99v8.1h-2.99Zm0,48.06v-40.43h2.99v40.43h-2.99Z"/>
    <path class="cls-1" d="M316.85,384.59c.1,1.89,.52,3.55,1.26,4.99,.73,1.44,1.69,2.67,2.87,3.7s2.56,1.8,4.13,2.32c1.57,.53,3.28,.79,5.11,.79,1.31,0,2.71-.12,4.21-.35,1.49-.24,2.88-.67,4.17-1.3,1.28-.63,2.35-1.51,3.19-2.63,.84-1.13,1.26-2.56,1.26-4.29,0-2.25-.68-3.96-2.04-5.11-1.36-1.15-3.08-2.04-5.15-2.67-2.07-.63-4.3-1.14-6.69-1.53-2.39-.39-4.61-.98-6.69-1.77-2.07-.79-3.79-1.9-5.15-3.34-1.36-1.44-2.04-3.55-2.04-6.33,0-1.99,.45-3.66,1.34-4.99s2.03-2.4,3.42-3.19c1.39-.79,2.95-1.35,4.68-1.69,1.73-.34,3.46-.51,5.19-.51,2.1,0,4.06,.24,5.9,.71,1.83,.47,3.42,1.23,4.76,2.28s2.38,2.39,3.15,4.01c.76,1.63,1.14,3.59,1.14,5.9h-2.99c0-1.83-.3-3.41-.9-4.72-.6-1.31-1.44-2.37-2.52-3.19-1.08-.81-2.35-1.42-3.81-1.81s-3.04-.59-4.72-.59c-1.36,0-2.74,.13-4.13,.39-1.39,.26-2.63,.71-3.74,1.34-1.1,.63-2,1.44-2.71,2.44-.71,1-1.06,2.2-1.06,3.62,0,1.63,.39,2.94,1.18,3.93,.79,1,1.82,1.8,3.11,2.4,1.28,.6,2.73,1.09,4.33,1.46,1.6,.37,3.21,.74,4.84,1.1,1.99,.37,3.87,.8,5.62,1.3,1.76,.5,3.28,1.18,4.56,2.04,1.28,.87,2.29,1.98,3.03,3.34,.73,1.36,1.1,3.09,1.1,5.19,0,2.2-.5,4.01-1.49,5.43-1,1.42-2.25,2.56-3.78,3.42-1.52,.87-3.21,1.47-5.07,1.81-1.86,.34-3.68,.51-5.47,.51-2.31,0-4.44-.3-6.41-.9-1.97-.6-3.68-1.52-5.15-2.75-1.47-1.23-2.62-2.74-3.46-4.52s-1.29-3.85-1.34-6.21h2.99Z"/>
    <path class="cls-1" d="M350.43,378.22v.47c0,2.36,.31,4.61,.95,6.76,.63,2.15,1.56,4.04,2.8,5.66,1.24,1.63,2.79,2.91,4.65,3.85,1.87,.94,4.03,1.42,6.51,1.42,4.05,0,7.25-1.06,9.62-3.19,2.37-2.12,4-5.07,4.89-8.85h2.99c-.89,4.72-2.82,8.34-5.78,10.85-2.96,2.52-6.88,3.77-11.76,3.77-2.99,0-5.6-.54-7.83-1.61-2.23-1.07-4.09-2.54-5.58-4.4-1.5-1.86-2.61-4.06-3.34-6.61-.74-2.54-1.1-5.28-1.1-8.22s.38-5.54,1.14-8.14c.76-2.59,1.9-4.88,3.42-6.84,1.52-1.97,3.42-3.54,5.7-4.72,2.28-1.18,4.97-1.77,8.06-1.77,2.83,0,5.33,.53,7.51,1.57,2.17,1.05,4,2.48,5.47,4.29,1.47,1.81,2.58,3.91,3.34,6.29,.76,2.39,1.14,4.94,1.14,7.67,0,.26-.01,.56-.04,.9-.03,.34-.04,.62-.04,.83h-32.72Zm29.73-2.6c-.11-2.2-.47-4.29-1.1-6.25-.63-1.97-1.56-3.7-2.8-5.19-1.24-1.5-2.73-2.69-4.5-3.58-1.76-.89-3.77-1.34-6.03-1.34-2.42,0-4.55,.46-6.39,1.38-1.84,.92-3.39,2.12-4.65,3.62-1.26,1.49-2.23,3.24-2.92,5.23-.68,1.99-1.11,4.04-1.26,6.13h29.65Z"/>
  </g>
</svg>