<?xml version="1.0" encoding="utf-8"?>
<!-- Generator: Adobe Illustrator 24.0.3, SVG Export Plug-In . SVG Version: 6.00 Build 0)  -->
<svg version="1.1" id="Layer_1" xmlns="http://www.w3.org/2000/svg" xmlns:xlink="http://www.w3.org/1999/xlink" x="0px" y="0px"
	 viewBox="0 0 400 400" style="enable-background:new 0 0 400 400;" xml:space="preserve">
<style type="text/css">
	.st0{fill:#FF7E3E;}
	.st1{fill:#C10230;}
</style>
<rect class="st0" width="400" height="400"/>
<g>
	<g>
		<path class="st1" d="M23.9,181.5c1.4,2.7,3.2,4.8,5.5,6.5c2.3,1.7,5,2.9,8.1,3.7c3.1,0.8,6.3,1.2,9.6,1.2c2.2,0,4.6-0.2,7.2-0.6
			c2.6-0.4,5-1.1,7.2-2.2c2.2-1.1,4.1-2.5,5.6-4.4c1.5-1.9,2.2-4.2,2.2-7.1c0-3.1-1-5.6-3-7.5c-2-1.9-4.6-3.5-7.8-4.8
			c-3.2-1.3-6.8-2.4-10.9-3.4c-4.1-1-8.2-2-12.3-3.2c-4.3-1.1-8.4-2.4-12.5-3.9c-4.1-1.5-7.7-3.5-10.9-6c-3.2-2.5-5.8-5.5-7.8-9.2
			c-2-3.7-3-8.1-3-13.4c0-5.9,1.3-11,3.8-15.3c2.5-4.3,5.8-7.9,9.9-10.8c4.1-2.9,8.6-5,13.8-6.4c5.1-1.4,10.2-2.1,15.4-2.1
			c6,0,11.7,0.7,17.2,2s10.4,3.5,14.7,6.5c4.3,3,7.7,6.8,10.2,11.5c2.5,4.6,3.8,10.3,3.8,16.9H65.5c-0.2-3.4-0.9-6.2-2.2-8.5
			c-1.2-2.2-2.9-4-4.9-5.3c-2-1.3-4.3-2.2-7-2.7c-2.6-0.5-5.5-0.8-8.6-0.8c-2,0-4.1,0.2-6.1,0.6c-2,0.4-3.9,1.2-5.5,2.2
			c-1.7,1.1-3,2.4-4.1,4c-1.1,1.6-1.6,3.6-1.6,6.1c0,2.2,0.4,4.1,1.3,5.4c0.9,1.4,2.5,2.7,5,3.8c2.5,1.2,6,2.4,10.4,3.5
			s10.2,2.7,17.4,4.5c2.1,0.4,5.1,1.2,8.9,2.3c3.8,1.1,7.6,2.9,11.3,5.4c3.7,2.5,7,5.7,9.7,9.8c2.7,4.1,4.1,9.4,4.1,15.8
			c0,5.2-1,10.1-3,14.6c-2,4.5-5,8.4-9,11.6c-4,3.3-9,5.8-14.9,7.6c-5.9,1.8-12.8,2.7-20.6,2.7c-6.3,0-12.4-0.8-18.3-2.3
			s-11.2-4-15.7-7.3c-4.5-3.3-8.1-7.5-10.8-12.7c-2.7-5.1-4-11.2-3.8-18.3h24.3C21.8,175.5,22.5,178.8,23.9,181.5z"/>
		<path class="st1" d="M154.2,209.7v-11.5h-0.5c-2.9,4.8-6.6,8.3-11.2,10.4c-4.6,2.1-9.3,3.2-14.1,3.2c-6.1,0-11.1-0.8-15-2.4
			c-3.9-1.6-7-3.9-9.2-6.8c-2.2-2.9-3.8-6.5-4.7-10.7c-0.9-4.2-1.4-8.9-1.4-14v-50.9h22.7v46.8c0,6.8,1.1,11.9,3.2,15.3
			c2.1,3.4,5.9,5.1,11.4,5.1c6.2,0,10.7-1.8,13.5-5.5c2.8-3.7,4.2-9.7,4.2-18.2v-43.4h22.7v82.8H154.2z"/>
		<path class="st1" d="M224.7,141.8c-3.6,0-6.7,0.8-9.1,2.5c-2.5,1.7-4.5,3.8-6,6.4c-1.6,2.6-2.6,5.5-3.3,8.6c-0.6,3.1-1,6.3-1,9.4
			c0,3,0.3,6,1,9.1c0.6,3.1,1.7,5.9,3.1,8.4c1.4,2.5,3.4,4.6,5.8,6.2c2.5,1.6,5.4,2.4,9,2.4c5.4,0,9.6-1.5,12.6-4.6
			c2.9-3,4.8-7.1,5.5-12.3h21.9c-1.5,11-5.8,19.4-12.8,25.1c-7.1,5.8-16.1,8.6-27.1,8.6c-6.2,0-11.9-1-17.1-3.1
			c-5.2-2.1-9.6-5-13.2-8.7c-3.6-3.7-6.5-8.2-8.5-13.4c-2-5.2-3-10.9-3-17.1c0-6.4,0.9-12.4,2.8-17.9c1.9-5.5,4.6-10.2,8.2-14.3
			c3.6-4,8.1-7.1,13.3-9.4c5.2-2.2,11.2-3.4,17.9-3.4c4.9,0,9.6,0.6,14.2,1.9c4.5,1.3,8.6,3.2,12.2,5.8c3.6,2.6,6.5,5.9,8.7,9.8
			c2.2,3.9,3.5,8.5,3.8,13.9h-22.3C240,146.5,234.4,141.8,224.7,141.8z"/>
		<path class="st1" d="M317.1,156.2v19.5h-48.2v-19.5H317.1z"/>
		<path class="st1" d="M41.8,256c-3.6,0-6.7,0.8-9.1,2.5c-2.5,1.7-4.5,3.8-6,6.4c-1.6,2.6-2.6,5.5-3.3,8.6c-0.6,3.1-1,6.3-1,9.4
			c0,3,0.3,6,1,9.1c0.6,3.1,1.7,5.9,3.1,8.4c1.4,2.5,3.4,4.6,5.8,6.2c2.5,1.6,5.4,2.4,9,2.4c5.4,0,9.6-1.5,12.6-4.6
			c2.9-3,4.8-7.1,5.5-12.3h21.9c-1.5,11-5.8,19.4-12.8,25.1c-7.1,5.8-16.1,8.6-27.1,8.6c-6.2,0-11.9-1-17.1-3.1
			c-5.2-2.1-9.6-5-13.2-8.7c-3.6-3.7-6.5-8.2-8.5-13.4c-2-5.2-3-10.9-3-17.1c0-6.4,0.9-12.4,2.8-17.9c1.9-5.5,4.6-10.2,8.2-14.3
			c3.6-4,8.1-7.1,13.3-9.4c5.2-2.2,11.2-3.4,17.9-3.4c4.9,0,9.6,0.6,14.2,1.9c4.5,1.3,8.6,3.2,12.2,5.8c3.6,2.6,6.5,5.9,8.7,9.8
			c2.2,3.9,3.5,8.5,3.8,13.9H58.6C57.1,260.8,51.5,256,41.8,256z"/>
		<path class="st1" d="M110.5,304.1c3.4,3.3,8.3,5,14.7,5c4.6,0,8.5-1.1,11.8-3.4c3.3-2.3,7-6.1,7.7-8.7L164,297
			c-3.2,9.9-9,18.3-15.6,22.6c-6.6,4.3-14.6,6.4-24,6.4c-6.5,0-12.4-1-17.6-3.1c-5.2-2.1-9.7-5-13.3-8.9c-3.6-3.8-6.4-8.4-8.4-13.8
			c-2-5.3-3-11.2-3-17.6c0-6.2,1-12,3-17.3c2-5.3,4.9-10,8.6-13.9c3.7-3.9,8.2-7,13.4-9.2c5.2-2.2,10.9-3.4,17.2-3.4
			c7,0,13.2,1.4,18.4,4.1c5.2,2.7,9.5,6.4,12.9,11c3.4,4.6,5.8,9.8,7.3,15.7c1.5,5.9,2,12,1.6,18.4h-59.7
			C105.2,295.4,107.1,300.8,110.5,304.1z M136.2,260.5c-2.7-3-6.9-4.5-12.4-4.5c-3.6,0-6.6,0.6-9,1.8c-2.4,1.2-4.3,2.7-5.8,4.6
			c-1.4,1.8-2.5,3.7-3,5.8c-0.6,2-0.9,3.8-1,5.4h37C140.8,267.9,138.9,263.5,136.2,260.5z"/>
		<path class="st1" d="M189.2,303.3c1,1.8,2.3,3.2,3.9,4.3s3.4,1.9,5.5,2.5c2.1,0.5,4.2,0.8,6.5,0.8c1.6,0,3.3-0.2,5-0.6
			c1.8-0.4,3.4-1,4.8-1.8c1.4-0.8,2.6-1.9,3.6-3.2c1-1.3,1.4-3,1.4-5c0-3.4-2.3-6-6.8-7.7c-4.5-1.7-10.9-3.4-19-5.1
			c-3.3-0.7-6.5-1.6-9.7-2.6c-3.1-1-5.9-2.3-8.4-4c-2.5-1.6-4.4-3.7-5.9-6.2c-1.5-2.5-2.2-5.6-2.2-9.2c0-5.3,1-9.7,3.1-13.1
			c2.1-3.4,4.8-6.1,8.2-8.1c3.4-2,7.3-3.4,11.5-4.2c4.3-0.8,8.6-1.2,13.1-1.2c4.5,0,8.8,0.4,13.1,1.3c4.2,0.9,8,2.3,11.3,4.3
			c3.3,2,6.1,4.7,8.2,8.1c2.2,3.4,3.5,7.6,3.9,12.7h-21.6c-0.3-4.4-2-7.3-5-8.9c-3-1.5-6.5-2.3-10.6-2.3c-1.3,0-2.7,0.1-4.2,0.2
			c-1.5,0.2-2.9,0.5-4.1,1c-1.2,0.5-2.3,1.3-3.1,2.3c-0.9,1-1.3,2.4-1.3,4.1c0,2,0.7,3.7,2.2,5c1.5,1.3,3.4,2.3,5.8,3.1
			c2.4,0.8,5.2,1.5,8.2,2.2c3.1,0.6,6.2,1.3,9.4,2.1c3.3,0.7,6.5,1.7,9.7,2.7c3.1,1.1,5.9,2.5,8.4,4.2c2.5,1.8,4.4,3.9,5.9,6.6
			c1.5,2.6,2.2,5.8,2.2,9.7c0,5.4-1.1,10-3.3,13.7c-2.2,3.7-5,6.6-8.6,8.9c-3.5,2.2-7.6,3.8-12.1,4.7c-4.5,0.9-9.2,1.4-13.8,1.4
			c-4.8,0-9.5-0.5-14.1-1.4c-4.6-1-8.7-2.6-12.3-4.8s-6.5-5.2-8.8-8.9c-2.3-3.7-3.6-8.3-3.8-13.9h21.6
			C187.7,299.5,188.2,301.6,189.2,303.3z"/>
		<path class="st1" d="M267.2,303.3c1,1.8,2.3,3.2,3.9,4.3s3.4,1.9,5.5,2.5c2.1,0.5,4.2,0.8,6.5,0.8c1.6,0,3.3-0.2,5-0.6
			c1.8-0.4,3.4-1,4.8-1.8c1.4-0.8,2.6-1.9,3.6-3.2c1-1.3,1.4-3,1.4-5c0-3.4-2.3-6-6.8-7.7c-4.5-1.7-10.9-3.4-19-5.1
			c-3.3-0.7-6.5-1.6-9.7-2.6c-3.1-1-5.9-2.3-8.4-4c-2.5-1.6-4.4-3.7-5.9-6.2c-1.5-2.5-2.2-5.6-2.2-9.2c0-5.3,1-9.7,3.1-13.1
			c2.1-3.4,4.8-6.1,8.2-8.1c3.4-2,7.3-3.4,11.5-4.2c4.3-0.8,8.6-1.2,13.1-1.2s8.8,0.4,13.1,1.3s8,2.3,11.3,4.3
			c3.3,2,6.1,4.7,8.2,8.1c2.2,3.4,3.5,7.6,3.9,12.7h-21.6c-0.3-4.4-2-7.3-5-8.9c-3-1.5-6.5-2.3-10.6-2.3c-1.3,0-2.7,0.1-4.2,0.2
			c-1.5,0.2-2.9,0.5-4.1,1c-1.2,0.5-2.3,1.3-3.1,2.3c-0.9,1-1.3,2.4-1.3,4.1c0,2,0.7,3.7,2.2,5c1.5,1.3,3.4,2.3,5.8,3.1
			c2.4,0.8,5.2,1.5,8.2,2.2c3.1,0.6,6.2,1.3,9.4,2.1c3.3,0.7,6.5,1.7,9.7,2.7c3.1,1.1,5.9,2.5,8.4,4.2s4.4,3.9,5.9,6.6
			c1.5,2.6,2.2,5.8,2.2,9.7c0,5.4-1.1,10-3.3,13.7c-2.2,3.7-5,6.6-8.6,8.9s-7.6,3.8-12.1,4.7c-4.5,0.9-9.2,1.4-13.8,1.4
			c-4.8,0-9.5-0.5-14.1-1.4c-4.6-1-8.7-2.6-12.3-4.8s-6.5-5.2-8.8-8.9c-2.3-3.7-3.6-8.3-3.8-13.9h21.6
			C265.7,299.5,266.2,301.6,267.2,303.3z"/>
	</g>
	<g>
		<path class="st1" d="M107.4,95.7c-1-0.7-2.1-1-3.4-1c-1.1,0-2.1,0.2-2.9,0.6c-0.8,0.4-1.5,1-2,1.7c-0.5,0.7-0.9,1.5-1.2,2.5
			c-0.2,0.9-0.4,1.9-0.4,2.9c0,1.1,0.1,2.1,0.4,3.1c0.2,1,0.6,1.8,1.2,2.5c0.5,0.7,1.2,1.3,2,1.7c0.8,0.4,1.8,0.6,2.9,0.6
			c0.8,0,1.6-0.1,2.2-0.4c0.6-0.3,1.2-0.7,1.7-1.1c0.5-0.5,0.8-1.1,1.1-1.7c0.3-0.7,0.4-1.4,0.5-2.2h2.5c-0.2,2.4-1.1,4.2-2.5,5.6
			s-3.3,2-5.7,2c-1.5,0-2.8-0.3-3.8-0.8c-1.1-0.5-2-1.2-2.7-2.1c-0.7-0.9-1.3-1.9-1.6-3.1c-0.4-1.2-0.5-2.5-0.5-3.9
			c0-1.4,0.2-2.7,0.6-3.9c0.4-1.2,1-2.3,1.7-3.2c0.8-0.9,1.7-1.6,2.8-2.1c1.1-0.5,2.4-0.8,3.9-0.8c1,0,1.9,0.1,2.8,0.4
			c0.9,0.3,1.7,0.7,2.4,1.2c0.7,0.5,1.3,1.2,1.7,1.9c0.5,0.8,0.8,1.7,0.9,2.7h-2.5C109,97.4,108.4,96.4,107.4,95.7z"/>
		<path class="st1" d="M114.5,102.3c0.3-0.9,0.7-1.6,1.3-2.3c0.6-0.6,1.3-1.2,2.1-1.5s1.8-0.6,2.9-0.6c1.1,0,2.1,0.2,2.9,0.6
			s1.5,0.9,2.1,1.5c0.6,0.6,1,1.4,1.3,2.3c0.3,0.9,0.4,1.8,0.4,2.8c0,1-0.1,1.9-0.4,2.8c-0.3,0.9-0.7,1.6-1.3,2.3
			c-0.6,0.6-1.3,1.1-2.1,1.5c-0.8,0.4-1.8,0.5-2.9,0.5c-1.1,0-2-0.2-2.9-0.5c-0.8-0.4-1.5-0.9-2.1-1.5c-0.6-0.6-1-1.4-1.3-2.3
			c-0.3-0.9-0.4-1.8-0.4-2.8C114,104.1,114.2,103.2,114.5,102.3z M116.8,107.4c0.2,0.6,0.5,1.2,0.9,1.6c0.4,0.4,0.8,0.8,1.4,1
			c0.5,0.2,1.1,0.3,1.7,0.3c0.6,0,1.1-0.1,1.7-0.3c0.5-0.2,1-0.6,1.4-1c0.4-0.4,0.7-1,0.9-1.6c0.2-0.6,0.3-1.4,0.3-2.2
			c0-0.8-0.1-1.6-0.3-2.2c-0.2-0.6-0.5-1.2-0.9-1.6c-0.4-0.4-0.8-0.8-1.4-1c-0.5-0.2-1.1-0.3-1.7-0.3c-0.6,0-1.1,0.1-1.7,0.3
			c-0.5,0.2-1,0.6-1.4,1c-0.4,0.4-0.7,1-0.9,1.6c-0.2,0.6-0.3,1.4-0.3,2.2C116.4,106,116.5,106.7,116.8,107.4z"/>
		<path class="st1" d="M132.4,93V112h-2.3V93H132.4z"/>
		<path class="st1" d="M138.3,93V112H136V93H138.3z"/>
		<path class="st1" d="M151.5,111.1c-1,0.8-2.3,1.2-3.9,1.2c-1.1,0-2-0.2-2.9-0.5c-0.8-0.4-1.5-0.8-2-1.5c-0.5-0.6-1-1.4-1.2-2.3
			c-0.3-0.9-0.4-1.8-0.5-2.9c0-1,0.2-2,0.5-2.9c0.3-0.9,0.8-1.6,1.3-2.3c0.6-0.6,1.3-1.1,2-1.5c0.8-0.4,1.6-0.5,2.6-0.5
			c1.2,0,2.2,0.3,3,0.8c0.8,0.5,1.4,1.1,1.9,1.9c0.5,0.8,0.8,1.6,1,2.5c0.2,0.9,0.3,1.8,0.2,2.6h-10.3c0,0.6,0.1,1.2,0.2,1.7
			c0.2,0.5,0.4,1,0.8,1.4c0.4,0.4,0.8,0.7,1.4,1c0.5,0.2,1.2,0.4,1.9,0.4c1,0,1.7-0.2,2.3-0.7c0.6-0.4,1-1.1,1.2-2h2.2
			C153.2,109.2,152.5,110.3,151.5,111.1z M150.9,102.3c-0.2-0.5-0.5-0.9-0.8-1.2c-0.3-0.3-0.8-0.6-1.2-0.8c-0.5-0.2-1-0.3-1.6-0.3
			c-0.6,0-1.1,0.1-1.6,0.3c-0.5,0.2-0.9,0.5-1.2,0.8c-0.3,0.4-0.6,0.8-0.8,1.2c-0.2,0.5-0.3,1-0.3,1.5h7.9
			C151.3,103.3,151.2,102.8,150.9,102.3z"/>
		<path class="st1" d="M166.3,115.9c-1,1.1-2.6,1.7-4.8,1.7c-0.6,0-1.3-0.1-2-0.2c-0.7-0.1-1.3-0.4-1.8-0.7c-0.5-0.3-1-0.7-1.3-1.2
			c-0.4-0.5-0.5-1.1-0.6-1.9h2.3c0,0.4,0.1,0.8,0.4,1c0.2,0.3,0.5,0.5,0.9,0.7c0.3,0.2,0.7,0.3,1.1,0.4c0.4,0.1,0.8,0.1,1.2,0.1
			c0.7,0,1.4-0.1,1.9-0.4c0.5-0.3,0.9-0.6,1.3-1.1c0.3-0.5,0.6-1,0.7-1.6c0.2-0.6,0.2-1.3,0.2-2.1v-0.9h-0.1c-0.4,0.8-1,1.5-1.8,1.9
			c-0.8,0.4-1.6,0.6-2.5,0.6c-1,0-1.9-0.2-2.7-0.6c-0.8-0.4-1.4-0.9-1.9-1.5c-0.5-0.6-0.9-1.4-1.2-2.2c-0.3-0.8-0.4-1.7-0.4-2.7
			c0-0.8,0.1-1.6,0.3-2.5c0.2-0.9,0.6-1.6,1.1-2.3c0.5-0.7,1.1-1.3,2-1.7c0.8-0.5,1.8-0.7,3-0.7c0.9,0,1.7,0.2,2.4,0.6
			c0.7,0.4,1.3,1,1.7,1.7h0v-2h2.1v12.5C167.9,113.1,167.3,114.7,166.3,115.9z M163.4,109.7c0.5-0.3,0.9-0.7,1.3-1.2
			c0.3-0.5,0.6-1.1,0.7-1.7c0.2-0.6,0.2-1.3,0.2-1.9c0-0.6-0.1-1.2-0.2-1.8c-0.1-0.6-0.4-1.1-0.7-1.6c-0.3-0.5-0.7-0.8-1.2-1.1
			c-0.5-0.3-1.1-0.4-1.8-0.4c-0.7,0-1.3,0.1-1.9,0.4c-0.5,0.3-0.9,0.6-1.3,1.1c-0.3,0.5-0.6,1-0.7,1.6c-0.2,0.6-0.2,1.2-0.2,1.9
			c0,0.6,0.1,1.2,0.2,1.9c0.1,0.6,0.3,1.2,0.6,1.7c0.3,0.5,0.7,0.9,1.2,1.2c0.5,0.3,1.1,0.5,1.9,0.5S162.9,110,163.4,109.7z"/>
		<path class="st1" d="M181,111.1c-1,0.8-2.3,1.2-3.9,1.2c-1.1,0-2-0.2-2.9-0.5c-0.8-0.4-1.5-0.8-2-1.5c-0.5-0.6-1-1.4-1.2-2.3
			c-0.3-0.9-0.4-1.8-0.5-2.9c0-1,0.2-2,0.5-2.9c0.3-0.9,0.8-1.6,1.3-2.3s1.3-1.1,2-1.5c0.8-0.4,1.6-0.5,2.6-0.5c1.2,0,2.2,0.3,3,0.8
			c0.8,0.5,1.4,1.1,1.9,1.9c0.5,0.8,0.8,1.6,1,2.5c0.2,0.9,0.3,1.8,0.2,2.6h-10.3c0,0.6,0.1,1.2,0.2,1.7c0.2,0.5,0.4,1,0.8,1.4
			c0.4,0.4,0.8,0.7,1.4,1c0.5,0.2,1.2,0.4,1.9,0.4c1,0,1.7-0.2,2.3-0.7c0.6-0.4,1-1.1,1.2-2h2.2C182.7,109.2,182,110.3,181,111.1z
			 M180.4,102.3c-0.2-0.5-0.5-0.9-0.8-1.2c-0.3-0.3-0.8-0.6-1.2-0.8c-0.5-0.2-1-0.3-1.6-0.3c-0.6,0-1.1,0.1-1.6,0.3
			c-0.5,0.2-0.9,0.5-1.2,0.8c-0.3,0.4-0.6,0.8-0.8,1.2c-0.2,0.5-0.3,1-0.3,1.5h7.9C180.7,103.3,180.6,102.8,180.4,102.3z"/>
	</g>
</g>
</svg>
