<?xml version="1.0" encoding="utf-8"?>
<!-- Generator: Adobe Illustrator 26.2.1, SVG Export Plug-In . SVG Version: 6.00 Build 0)  -->
<svg version="1.1" id="Layer_1" xmlns="http://www.w3.org/2000/svg" xmlns:xlink="http://www.w3.org/1999/xlink" x="0px" y="0px"
	 viewBox="0 0 400 400" style="enable-background:new 0 0 400 400;" xml:space="preserve">
<style type="text/css">
	.st0{fill:#192A67;}
	.st1{fill:#FFFFFF;}
</style>
<g>
	<rect class="st0" width="400" height="400"/>
</g>
<g>
	<g>
		<path class="st1" d="M145.7,122.9c0-2.1,1.2-3.2,2.6-3.2s2.6,1.2,2.6,3.2c0,2.1-1.2,3.2-2.6,3.2S145.7,125,145.7,122.9
			 M144.2,122.9c0,2.5,1.4,4.4,4.1,4.4c2.7,0,4.1-2,4.1-4.4c0-2.5-1.4-4.5-4.1-4.5C145.6,118.5,144.2,120.4,144.2,122.9
			 M141.4,116.1H140v2.5h-1.4v1.2h1.4v5.4c0,1.6,0.6,1.9,2,1.9h1.1v-1.2h-0.6c-0.9,0-1.1-0.1-1.1-0.8v-5.3h1.7v-1.2h-1.7V116.1z
			 M125.7,127.2h1.4v-4.8c0-1.5,0.8-2.7,2.5-2.7c1.1,0,1.7,0.7,1.7,1.7v5.8h1.4v-5.6c0-1.8-0.7-3.1-2.9-3.1c-1.2,0-2.2,0.5-2.8,1.5
			h0v-1.3h-1.3V127.2z M117.3,122.9c0-2.1,1.2-3.2,2.6-3.2s2.6,1.2,2.6,3.2c0,2.1-1.2,3.2-2.6,3.2S117.3,125,117.3,122.9
			 M115.8,122.9c0,2.5,1.4,4.4,4.1,4.4c2.7,0,4.1-2,4.1-4.4c0-2.5-1.4-4.5-4.1-4.5C117.3,118.5,115.8,120.4,115.8,122.9
			 M114.1,115.4h-1.4v1.7h1.4V115.4z M112.7,127.2h1.4v-8.5h-1.4V127.2z M109.4,116.1H108v2.5h-1.4v1.2h1.4v5.4c0,1.6,0.6,1.9,2,1.9
			h1.1v-1.2h-0.6c-0.9,0-1.1-0.1-1.1-0.8v-5.3h1.7v-1.2h-1.7V116.1z M105.9,121.4c-0.2-2-1.7-2.9-3.7-2.9c-2.7,0-4,2-4,4.6
			c0,2.5,1.4,4.3,4,4.3c2.1,0,3.4-1.2,3.7-3.3h-1.4c-0.2,1.3-1,2.1-2.3,2.1c-1.8,0-2.5-1.5-2.5-3.1c0-1.7,0.6-3.3,2.6-3.3
			c1.2,0,1.9,0.6,2.1,1.7H105.9z M96.5,118.7h-1.4v4.8c0,1.5-0.8,2.7-2.5,2.7c-1.1,0-1.7-0.7-1.7-1.7v-5.8h-1.4v5.6
			c0,1.8,0.7,3.1,2.9,3.1c1.2,0,2.2-0.5,2.8-1.5h0v1.3h1.3V118.7z M80.8,123c0-1.7,0.6-3.3,2.5-3.3c1.9,0,2.7,1.5,2.7,3.2
			c0,1.6-0.7,3.2-2.6,3.2C81.6,126.1,80.8,124.6,80.8,123 M87.3,115.4H86v4.4h0c-0.6-1-1.9-1.3-2.7-1.3c-2.6,0-3.9,2-3.9,4.4
			s1.3,4.5,3.9,4.5c1.2,0,2.3-0.4,2.7-1.3h0v1.2h1.4V115.4z M71.3,122.9c0-2.1,1.2-3.2,2.6-3.2s2.6,1.2,2.6,3.2
			c0,2.1-1.2,3.2-2.6,3.2S71.3,125,71.3,122.9 M69.9,122.9c0,2.5,1.4,4.4,4.1,4.4s4.1-2,4.1-4.4c0-2.5-1.4-4.5-4.1-4.5
			S69.9,120.4,69.9,122.9 M65.1,127.2h1.4v-3.8c0-2.2,0.8-3.4,3.1-3.4v-1.5c-1.5,0-2.4,0.6-3.1,2h0v-1.8h-1.3V127.2z M61.9,116.1
			h-1.4v2.5H59v1.2h1.4v5.4c0,1.6,0.6,1.9,2,1.9h1.1v-1.2h-0.6c-0.9,0-1.1-0.1-1.1-0.8v-5.3h1.7v-1.2h-1.7V116.1z M50.8,127.2h1.4
			v-4.8c0-1.5,0.8-2.7,2.5-2.7c1.1,0,1.7,0.7,1.7,1.7v5.8h1.4v-5.6c0-1.8-0.7-3.1-2.9-3.1c-1.2,0-2.2,0.5-2.8,1.5h0v-1.3h-1.3V127.2
			z M46.8,127.2h1.6v-11.7h-1.6V127.2z"/>
	</g>
	<g>
		<path class="st1" d="M39.9,149.9c5.7,0,10.5,0.8,14.5,2.5c4,1.6,7.2,3.8,9.7,6.5c2.5,2.7,4.3,5.8,5.5,9.3
			c1.1,3.5,1.7,7.1,1.7,10.8c0,3.6-0.6,7.2-1.7,10.7c-1.1,3.5-3,6.6-5.5,9.3c-2.5,2.7-5.7,4.9-9.7,6.5c-4,1.7-8.8,2.5-14.5,2.5h-21
			v32.5H-1.1v-90.7H39.9z M34.4,192.6c2.3,0,4.5-0.2,6.6-0.5c2.1-0.3,4-1,5.6-2c1.6-1,2.9-2.4,3.9-4.1s1.5-4.1,1.5-7s-0.5-5.2-1.5-7
			s-2.3-3.2-3.9-4.1c-1.6-1-3.5-1.6-5.6-2c-2.1-0.3-4.3-0.5-6.6-0.5H18.9v27.2H34.4z"/>
		<path class="st1" d="M92.8,149.9v34.2h0.4c2.3-3.8,5.2-6.6,8.8-8.3c3.6-1.7,7-2.6,10.4-2.6c4.8,0,8.8,0.7,11.9,2
			c3.1,1.3,5.5,3.1,7.3,5.5c1.8,2.3,3,5.2,3.7,8.5c0.7,3.3,1.1,7.1,1.1,11.1v40.4h-18v-37.1c0-5.4-0.8-9.5-2.5-12.1
			c-1.7-2.7-4.7-4-9-4c-4.9,0-8.5,1.5-10.7,4.4c-2.2,2.9-3.3,7.7-3.3,14.4v34.4h-18v-90.7H92.8z"/>
		<path class="st1" d="M144.2,164.8v-14.9h18v14.9H144.2z M162.3,175v65.7h-18V175H162.3z"/>
		<path class="st1" d="M188.7,149.9v90.7h-18v-90.7H188.7z"/>
		<path class="st1" d="M197,193.6c1.6-4.3,3.9-7.9,6.9-10.9c3-3,6.5-5.3,10.7-7c4.2-1.6,8.8-2.5,14-2.5c5.2,0,9.8,0.8,14,2.5
			c4.2,1.7,7.8,4,10.7,7c3,3,5.3,6.6,6.9,10.9c1.6,4.3,2.4,9,2.4,14.3c0,5.3-0.8,10-2.4,14.2s-3.9,7.9-6.9,10.9
			c-3,3-6.5,5.3-10.7,6.9s-8.9,2.4-14,2.4c-5.2,0-9.8-0.8-14-2.4c-4.2-1.6-7.7-3.9-10.7-6.9c-3-3-5.3-6.6-6.9-10.9
			c-1.6-4.2-2.4-9-2.4-14.2C194.6,202.6,195.4,197.9,197,193.6z M213.4,215.6c0.5,2.5,1.4,4.7,2.6,6.7c1.2,2,2.9,3.6,4.9,4.8
			c2,1.2,4.6,1.8,7.6,1.8s5.6-0.6,7.7-1.8c2.1-1.2,3.7-2.8,5-4.8c1.2-2,2.1-4.2,2.6-6.7c0.5-2.5,0.8-5.1,0.8-7.7
			c0-2.6-0.3-5.2-0.8-7.7c-0.5-2.5-1.4-4.8-2.6-6.7c-1.2-1.9-2.9-3.5-5-4.8c-2.1-1.2-4.6-1.8-7.7-1.8s-5.6,0.6-7.6,1.8
			c-2,1.2-3.7,2.8-4.9,4.8c-1.2,1.9-2.1,4.2-2.6,6.7c-0.5,2.5-0.8,5.1-0.8,7.7C212.6,210.5,212.8,213.1,213.4,215.6z"/>
		<path class="st1" d="M283,224.3c0.8,1.4,1.8,2.5,3.1,3.4c1.3,0.9,2.7,1.5,4.4,2c1.6,0.4,3.4,0.6,5.1,0.6c1.3,0,2.6-0.1,4-0.4
			c1.4-0.3,2.7-0.8,3.8-1.4c1.1-0.6,2.1-1.5,2.9-2.5c0.8-1.1,1.1-2.4,1.1-4c0-2.7-1.8-4.7-5.4-6.1c-3.6-1.4-8.6-2.7-15.1-4.1
			c-2.6-0.6-5.2-1.3-7.7-2.1c-2.5-0.8-4.7-1.9-6.7-3.2c-1.9-1.3-3.5-3-4.7-5c-1.2-2-1.8-4.4-1.8-7.3c0-4.2,0.8-7.7,2.5-10.4
			c1.6-2.7,3.8-4.8,6.5-6.4c2.7-1.6,5.8-2.7,9.1-3.3c3.4-0.6,6.9-1,10.4-1s7,0.3,10.4,1c3.3,0.7,6.3,1.8,9,3.4
			c2.6,1.6,4.8,3.7,6.5,6.4c1.7,2.7,2.8,6,3.1,10.1h-17.2c-0.3-3.5-1.6-5.8-3.9-7.1c-2.4-1.2-5.2-1.8-8.4-1.8c-1,0-2.1,0.1-3.3,0.2
			c-1.2,0.1-2.3,0.4-3.2,0.8c-1,0.4-1.8,1-2.5,1.8c-0.7,0.8-1,1.9-1,3.2c0,1.6,0.6,2.9,1.8,3.9c1.2,1,2.7,1.8,4.6,2.5
			c1.9,0.6,4.1,1.2,6.5,1.7c2.5,0.5,5,1.1,7.5,1.7c2.6,0.6,5.2,1.3,7.7,2.2c2.5,0.8,4.7,2,6.7,3.4s3.5,3.1,4.7,5.2
			c1.2,2.1,1.8,4.6,1.8,7.7c0,4.3-0.9,7.9-2.6,10.9c-1.7,2.9-4,5.3-6.8,7.1s-6,3-9.6,3.7c-3.6,0.7-7.3,1.1-11,1.1
			c-3.8,0-7.5-0.4-11.2-1.1c-3.6-0.8-6.9-2-9.7-3.8s-5.2-4.1-7-7.1c-1.8-2.9-2.8-6.6-3-11h17.1C281.8,221.3,282.2,222.9,283,224.3z"
			/>
		<path class="st1" d="M367.8,198.2v15.5h-38.2v-15.5H367.8z"/>
		<path class="st1" d="M2,294.5c1.6-4.3,3.9-7.9,6.9-10.9c3-3,6.5-5.3,10.7-7c4.2-1.6,8.8-2.5,14-2.5c5.2,0,9.8,0.8,14,2.5
			c4.2,1.7,7.8,4,10.7,7c3,3,5.3,6.6,6.9,10.9c1.6,4.3,2.4,9,2.4,14.3c0,5.3-0.8,10-2.4,14.2c-1.6,4.2-3.9,7.9-6.9,10.9
			c-3,3-6.5,5.3-10.7,6.9c-4.2,1.6-8.9,2.4-14,2.4c-5.2,0-9.8-0.8-14-2.4c-4.2-1.6-7.7-3.9-10.7-6.9c-3-3-5.3-6.6-6.9-10.9
			c-1.6-4.2-2.4-9-2.4-14.2C-0.4,303.6,0.4,298.8,2,294.5z M18.4,316.5c0.5,2.5,1.4,4.7,2.6,6.7c1.2,2,2.9,3.6,4.9,4.8
			c2,1.2,4.6,1.8,7.6,1.8s5.6-0.6,7.7-1.8c2.1-1.2,3.7-2.8,5-4.8c1.2-2,2.1-4.2,2.6-6.7c0.5-2.5,0.8-5.1,0.8-7.7
			c0-2.6-0.3-5.2-0.8-7.7c-0.5-2.5-1.4-4.8-2.6-6.7c-1.2-1.9-2.9-3.5-5-4.8c-2.1-1.2-4.6-1.8-7.7-1.8s-5.6,0.6-7.6,1.8
			c-2,1.2-3.7,2.8-4.9,4.8c-1.2,1.9-2.1,4.2-2.6,6.7c-0.5,2.5-0.8,5.1-0.8,7.7C17.7,311.4,17.9,314,18.4,316.5z"/>
		<path class="st1" d="M90.1,275.9v8.4h0.3c2.2-3.6,5-6.1,8.4-7.7c3.4-1.6,7.1-2.4,11.2-2.4c5.2,0,9.6,1,13.3,2.9
			c3.7,1.9,6.8,4.5,9.3,7.8c2.5,3.2,4.3,7,5.5,11.2c1.2,4.3,1.8,8.7,1.8,13.4c0,4.4-0.6,8.6-1.8,12.7c-1.2,4.1-3,7.7-5.4,10.8
			c-2.4,3.1-5.4,5.6-9,7.5c-3.6,1.9-7.8,2.8-12.6,2.8c-4.1,0-7.8-0.8-11.2-2.5c-3.4-1.6-6.2-4.1-8.4-7.3H91v31.1h-18v-88.7H90.1z
			 M113.5,328c2-1.2,3.6-2.7,4.8-4.6c1.2-1.9,2.1-4.1,2.6-6.7c0.5-2.5,0.8-5.1,0.8-7.7c0-2.6-0.3-5.2-0.8-7.7
			c-0.6-2.5-1.5-4.8-2.7-6.8s-2.9-3.6-4.9-4.8c-2-1.2-4.4-1.8-7.3-1.8c-3,0-5.4,0.6-7.4,1.8c-2,1.2-3.6,2.8-4.8,4.8
			c-1.2,1.9-2.1,4.2-2.6,6.7c-0.5,2.5-0.8,5.2-0.8,7.9c0,2.6,0.3,5.2,0.8,7.7c0.5,2.5,1.4,4.8,2.7,6.7c1.2,1.9,2.9,3.5,4.9,4.6
			c2,1.2,4.5,1.8,7.4,1.8C109.1,329.8,111.5,329.2,113.5,328z"/>
		<path class="st1" d="M162.2,250.9v34.2h0.4c2.3-3.8,5.2-6.6,8.8-8.3c3.6-1.7,7-2.6,10.4-2.6c4.8,0,8.8,0.7,11.9,2s5.5,3.1,7.3,5.5
			c1.8,2.3,3,5.2,3.7,8.5c0.7,3.3,1.1,7.1,1.1,11.1v40.4h-18v-37.1c0-5.4-0.8-9.5-2.5-12.1s-4.7-4-9-4c-4.9,0-8.5,1.5-10.7,4.4
			c-2.2,2.9-3.3,7.7-3.3,14.4v34.4h-18v-90.7H162.2z"/>
		<path class="st1" d="M237.4,361.2c-3.5,2.3-8.3,3.4-14.5,3.4c-1.9,0-3.7-0.1-5.5-0.2c-1.8-0.1-3.7-0.3-5.5-0.4v-14.9
			c1.7,0.2,3.4,0.3,5.2,0.5c1.8,0.2,3.6,0.2,5.3,0.1c2.4-0.3,4.1-1.2,5.3-2.8s1.7-3.4,1.7-5.3c0-1.4-0.3-2.8-0.8-4.1l-23-61.6h19.2
			l14.9,45h0.3l14.4-45H273l-27.4,73.8C243.6,355.1,240.9,358.9,237.4,361.2z"/>
	</g>
</g>
</svg>
