<?xml version="1.0" encoding="UTF-8"?>
<svg id="Layer_1" data-name="Layer 1" xmlns="http://www.w3.org/2000/svg" viewBox="0 0 400 400">
  <defs>
    <style>
      .cls-1 {
        fill: #ff7e3e;
      }

      .cls-2 {
        fill: #be1734;
      }
    </style>
  </defs>
  <rect class="cls-1" y=".51" width="400" height="398.33"/>
  <rect class="cls-2" y="350.97" width="399.74" height="49.03"/>
  <g>
    <path class="cls-1" d="m148.35,369.31v4.69h4.94v-4.69h2.68v12.21h-2.68v-5.27h-4.94v5.27h-2.69v-12.21h2.69Z"/>
    <path class="cls-1" d="m160.17,369.31v12.21h-2.69v-12.21h2.69Z"/>
    <path class="cls-1" d="m168.91,381.43c-.58.24-1.17.37-1.76.37-.93,0-1.78-.16-2.52-.49-.75-.32-1.38-.77-1.89-1.34-.51-.57-.91-1.24-1.18-2.01-.27-.77-.41-1.6-.41-2.49s.14-1.76.41-2.54c.27-.78.67-1.46,1.18-2.04.51-.58,1.14-1.04,1.89-1.37.75-.33,1.59-.5,2.52-.5.63,0,1.23.09,1.82.28.59.19,1.12.46,1.59.83.47.37.86.82,1.17,1.35s.5,1.15.56,1.85h-2.56c-.16-.68-.47-1.2-.92-1.54-.46-.34-1.01-.51-1.66-.51-.6,0-1.12.12-1.54.35s-.76.55-1.03.94c-.26.39-.45.84-.57,1.34s-.18,1.02-.18,1.56.06,1.01.18,1.5c.12.49.31.92.57,1.31s.6.7,1.03.93.94.35,1.54.35c.89,0,1.58-.23,2.06-.68s.77-1.1.85-1.96h-2.7v-2h5.13v6.6h-1.71l-.27-1.39c-.48.62-1.01,1.05-1.59,1.29Z"/>
    <path class="cls-1" d="m176.48,369.31v4.69h4.94v-4.69h2.69v12.21h-2.69v-5.27h-4.94v5.27h-2.68v-12.21h2.68Z"/>
    <path class="cls-1" d="m191.57,378.51c.15.28.34.52.59.69.25.18.53.31.86.39.33.09.67.13,1.03.13.24,0,.5-.02.77-.06.27-.04.53-.12.77-.23s.44-.27.6-.47c.16-.2.24-.45.24-.76,0-.33-.11-.6-.32-.8-.21-.21-.49-.38-.83-.51s-.73-.26-1.16-.36c-.43-.1-.87-.22-1.32-.34-.46-.11-.9-.25-1.33-.42-.43-.16-.82-.38-1.16-.64s-.62-.59-.83-.98c-.21-.39-.32-.87-.32-1.43,0-.63.13-1.17.4-1.63.27-.46.62-.85,1.05-1.15.43-.31.92-.54,1.47-.68.55-.15,1.09-.22,1.64-.22.64,0,1.25.07,1.84.21.59.14,1.11.37,1.56.69.46.32.82.73,1.09,1.22.27.5.4,1.1.4,1.8h-2.6c-.02-.36-.1-.67-.23-.91-.13-.24-.31-.43-.52-.56-.22-.14-.46-.23-.74-.29s-.58-.09-.91-.09c-.22,0-.43.02-.65.07-.22.05-.41.13-.59.24s-.32.26-.44.43c-.11.17-.17.39-.17.65,0,.24.05.43.14.58.09.15.27.29.54.41.27.13.64.25,1.11.38.47.13,1.09.29,1.86.48.23.05.54.13.95.25.4.12.81.31,1.21.57.4.26.74.61,1.04,1.05.29.44.44,1,.44,1.68,0,.56-.11,1.08-.32,1.56s-.54.89-.97,1.24c-.43.35-.96.62-1.59.81-.63.19-1.37.29-2.2.29-.67,0-1.33-.08-1.96-.25s-1.19-.42-1.68-.78-.87-.8-1.15-1.35c-.29-.55-.42-1.2-.41-1.95h2.6c0,.41.07.76.22,1.04Z"/>
    <path class="cls-1" d="m207.59,372.57c-.16-.26-.36-.48-.6-.67-.24-.19-.51-.35-.81-.45-.3-.11-.62-.16-.95-.16-.6,0-1.12.12-1.54.35s-.76.55-1.03.94c-.26.39-.45.84-.57,1.34s-.18,1.02-.18,1.56.06,1.01.18,1.5c.12.49.31.92.57,1.31s.6.7,1.03.93.94.35,1.54.35c.82,0,1.46-.25,1.92-.75.46-.5.74-1.16.85-1.98h2.6c-.07.76-.25,1.45-.53,2.07-.29.62-.66,1.14-1.13,1.57-.47.43-1.02.76-1.64.99-.63.23-1.32.34-2.07.34-.93,0-1.78-.16-2.52-.49-.75-.32-1.38-.77-1.89-1.34-.51-.57-.91-1.24-1.18-2.01-.27-.77-.41-1.6-.41-2.49s.14-1.76.41-2.54c.27-.78.67-1.46,1.18-2.04.51-.58,1.14-1.04,1.89-1.37.75-.33,1.59-.5,2.52-.5.67,0,1.31.1,1.91.29.6.19,1.13.48,1.61.85.47.37.86.83,1.17,1.38.31.55.5,1.17.58,1.88h-2.6c-.05-.31-.15-.59-.31-.85Z"/>
    <path class="cls-1" d="m214.26,369.31v4.69h4.94v-4.69h2.69v12.21h-2.69v-5.27h-4.94v5.27h-2.68v-12.21h2.68Z"/>
    <path class="cls-1" d="m223.27,372.93c.27-.78.67-1.46,1.18-2.04.51-.58,1.14-1.04,1.89-1.37.75-.33,1.59-.5,2.52-.5s1.79.17,2.53.5c.74.33,1.37.79,1.88,1.37.51.58.91,1.26,1.18,2.04s.41,1.63.41,2.54-.14,1.72-.41,2.49-.67,1.44-1.18,2.01-1.14,1.02-1.88,1.34c-.74.32-1.59.49-2.53.49s-1.78-.16-2.52-.49c-.75-.32-1.38-.77-1.89-1.34-.51-.57-.91-1.24-1.18-2.01-.27-.77-.41-1.6-.41-2.49s.14-1.76.41-2.54Zm2.45,4.04c.12.49.31.92.57,1.31s.6.7,1.03.93.94.35,1.54.35,1.12-.12,1.54-.35.76-.54,1.03-.93.45-.82.57-1.31c.12-.48.18-.98.18-1.5s-.06-1.05-.18-1.56-.31-.95-.57-1.34c-.26-.39-.6-.71-1.03-.94s-.93-.35-1.54-.35-1.12.12-1.54.35-.76.55-1.03.94c-.26.39-.45.84-.57,1.34s-.18,1.02-.18,1.56.06,1.01.18,1.5Z"/>
    <path class="cls-1" d="m235.72,372.93c.27-.78.67-1.46,1.18-2.04.51-.58,1.14-1.04,1.89-1.37s1.59-.5,2.52-.5,1.79.17,2.53.5c.74.33,1.37.79,1.88,1.37.51.58.91,1.26,1.18,2.04.27.78.41,1.63.41,2.54s-.14,1.72-.41,2.49c-.27.77-.67,1.44-1.18,2.01-.51.57-1.14,1.02-1.88,1.34-.74.32-1.59.49-2.53.49s-1.78-.16-2.52-.49-1.38-.77-1.89-1.34c-.51-.57-.91-1.24-1.18-2.01-.27-.77-.41-1.6-.41-2.49s.14-1.76.41-2.54Zm2.45,4.04c.12.49.31.92.57,1.31.26.39.6.7,1.03.93s.94.35,1.54.35,1.12-.12,1.54-.35.76-.54,1.03-.93c.26-.39.45-.82.57-1.31.12-.48.18-.98.18-1.5s-.06-1.05-.18-1.56-.31-.95-.57-1.34c-.26-.39-.6-.71-1.03-.94s-.94-.35-1.54-.35-1.12.12-1.54.35-.76.55-1.03.94c-.26.39-.45.84-.57,1.34s-.18,1.02-.18,1.56.06,1.01.18,1.5Z"/>
    <path class="cls-1" d="m250.97,369.31v9.95h5.95v2.26h-8.64v-12.21h2.69Z"/>
  </g>
  <g>
    <path class="cls-2" d="m26.18,155.95c1.35,2.6,3.14,4.7,5.38,6.31,2.23,1.61,4.85,2.81,7.87,3.58,3.01.78,6.13,1.17,9.35,1.17,2.18,0,4.52-.18,7.01-.55,2.49-.36,4.83-1.06,7.01-2.1,2.18-1.04,4-2.47,5.45-4.29,1.45-1.82,2.18-4.13,2.18-6.93,0-3.01-.96-5.45-2.88-7.32-1.92-1.87-4.44-3.43-7.56-4.67-3.12-1.25-6.65-2.34-10.6-3.27-3.95-.94-7.95-1.97-12-3.12-4.16-1.04-8.21-2.31-12.15-3.82-3.95-1.5-7.48-3.45-10.6-5.84-3.12-2.39-5.64-5.38-7.56-8.96-1.92-3.58-2.88-7.92-2.88-13.01,0-5.71,1.22-10.67,3.66-14.88,2.44-4.21,5.63-7.71,9.58-10.52,3.95-2.81,8.41-4.88,13.4-6.23,4.99-1.35,9.97-2.03,14.96-2.03,5.82,0,11.4.65,16.75,1.95,5.35,1.3,10.1,3.4,14.26,6.31,4.15,2.91,7.45,6.62,9.89,11.14,2.44,4.52,3.66,10,3.66,16.44h-23.68c-.21-3.32-.91-6.08-2.1-8.26-1.2-2.18-2.78-3.9-4.75-5.14-1.97-1.25-4.23-2.13-6.78-2.65-2.55-.52-5.33-.78-8.34-.78-1.97,0-3.95.21-5.92.62-1.97.42-3.77,1.14-5.38,2.18-1.61,1.04-2.94,2.34-3.97,3.9-1.04,1.56-1.56,3.53-1.56,5.92,0,2.18.41,3.95,1.25,5.3.83,1.35,2.47,2.6,4.91,3.74,2.44,1.14,5.82,2.29,10.13,3.43,4.31,1.14,9.95,2.6,16.91,4.36,2.08.42,4.96,1.17,8.65,2.26,3.69,1.09,7.35,2.83,10.99,5.22,3.63,2.39,6.78,5.58,9.43,9.58,2.65,4,3.97,9.12,3.97,15.35,0,5.09-.99,9.82-2.96,14.18-1.97,4.36-4.91,8.13-8.8,11.3-3.9,3.17-8.73,5.64-14.49,7.4-5.77,1.77-12.44,2.65-20.02,2.65-6.13,0-12.08-.75-17.84-2.26-5.76-1.5-10.86-3.87-15.27-7.09-4.42-3.22-7.92-7.32-10.52-12.31-2.6-4.99-3.84-10.91-3.74-17.76h23.68c0,3.74.67,6.91,2.03,9.5Z"/>
    <path class="cls-2" d="m154.58,183.37v-11.22h-.47c-2.8,4.67-6.44,8.05-10.91,10.13-4.47,2.08-9.04,3.12-13.71,3.12-5.92,0-10.78-.78-14.57-2.34-3.79-1.56-6.78-3.76-8.96-6.62-2.18-2.86-3.71-6.33-4.6-10.44-.88-4.1-1.32-8.65-1.32-13.63v-49.55h22.13v45.5c0,6.65,1.04,11.61,3.12,14.88,2.08,3.27,5.77,4.91,11.06,4.91,6.02,0,10.39-1.79,13.09-5.38,2.7-3.58,4.05-9.48,4.05-17.69v-42.23h22.13v80.56h-21.04Z"/>
    <path class="cls-2" d="m224.69,117.3c-3.53,0-6.49.81-8.88,2.41-2.39,1.61-4.34,3.69-5.84,6.23-1.51,2.55-2.57,5.35-3.19,8.41-.62,3.06-.94,6.1-.94,9.11s.31,5.87.94,8.88c.62,3.01,1.64,5.74,3.04,8.18,1.4,2.44,3.3,4.44,5.69,6,2.39,1.56,5.3,2.34,8.73,2.34,5.3,0,9.37-1.48,12.23-4.44,2.86-2.96,4.65-6.93,5.38-11.92h21.35c-1.46,10.7-5.61,18.85-12.47,24.46-6.86,5.61-15.64,8.41-26.33,8.41-6.03,0-11.56-1.01-16.59-3.04-5.04-2.03-9.32-4.85-12.86-8.49-3.53-3.63-6.29-7.97-8.26-13.01-1.97-5.04-2.96-10.57-2.96-16.6s.91-12.02,2.73-17.37c1.82-5.35,4.49-9.97,8.02-13.87,3.53-3.9,7.84-6.93,12.93-9.11,5.09-2.18,10.91-3.27,17.45-3.27,4.78,0,9.37.62,13.79,1.87,4.41,1.25,8.36,3.14,11.84,5.69,3.48,2.55,6.31,5.71,8.49,9.5,2.18,3.79,3.43,8.29,3.74,13.48h-21.66c-1.46-9.25-6.91-13.87-16.36-13.87Z"/>
    <path class="cls-2" d="m316.16,131.33v19.01h-46.9v-19.01h46.9Z"/>
    <path class="cls-2" d="m43.63,231.05c-3.53,0-6.49.81-8.88,2.41-2.39,1.61-4.34,3.69-5.84,6.23-1.51,2.55-2.57,5.35-3.19,8.41-.62,3.06-.94,6.1-.94,9.11s.31,5.87.94,8.88c.62,3.01,1.64,5.74,3.04,8.18,1.4,2.44,3.3,4.44,5.69,6,2.39,1.56,5.3,2.34,8.73,2.34,5.3,0,9.37-1.48,12.23-4.44,2.86-2.96,4.65-6.93,5.38-11.92h21.35c-1.46,10.7-5.61,18.85-12.47,24.46-6.86,5.61-15.64,8.41-26.33,8.41-6.03,0-11.56-1.01-16.6-3.04-5.04-2.03-9.32-4.85-12.86-8.49-3.53-3.63-6.29-7.97-8.26-13.01-1.97-5.04-2.96-10.57-2.96-16.6s.91-12.02,2.73-17.37c1.82-5.35,4.49-9.97,8.02-13.87,3.53-3.9,7.84-6.93,12.93-9.11,5.09-2.18,10.91-3.27,17.45-3.27,4.78,0,9.37.62,13.79,1.87,4.41,1.25,8.36,3.14,11.84,5.69,3.48,2.55,6.31,5.71,8.49,9.5,2.18,3.79,3.43,8.29,3.74,13.48h-21.66c-1.46-9.25-6.91-13.87-16.36-13.87Z"/>
    <path class="cls-2" d="m112.04,277.8c3.32,3.22,8.1,4.83,14.34,4.83,4.47,0,8.31-1.11,11.53-3.35,3.22-2.23,5.19-4.6,5.92-7.09h19.48c-3.12,9.66-7.9,16.57-14.34,20.72-6.44,4.16-14.23,6.23-23.37,6.23-6.34,0-12.05-1.01-17.14-3.04-5.09-2.03-9.4-4.91-12.93-8.65-3.53-3.74-6.26-8.21-8.18-13.4-1.92-5.19-2.88-10.91-2.88-17.14s.99-11.63,2.96-16.83c1.97-5.19,4.78-9.68,8.41-13.48,3.64-3.79,7.97-6.78,13.01-8.96,5.04-2.18,10.62-3.27,16.75-3.27,6.86,0,12.83,1.33,17.92,3.97,5.09,2.65,9.27,6.21,12.54,10.67,3.27,4.47,5.63,9.56,7.09,15.27,1.45,5.71,1.97,11.69,1.56,17.92h-58.12c.31,7.17,2.13,12.36,5.45,15.58Zm25.01-42.38c-2.65-2.91-6.68-4.36-12.08-4.36-3.53,0-6.47.6-8.8,1.79-2.34,1.19-4.21,2.68-5.61,4.44-1.4,1.77-2.39,3.64-2.96,5.61-.57,1.97-.91,3.74-1.01,5.3h36c-1.04-5.61-2.88-9.87-5.53-12.78Z"/>
    <path class="cls-2" d="m190.18,277.1c.99,1.71,2.26,3.12,3.82,4.21s3.35,1.9,5.38,2.41c2.03.52,4.13.78,6.31.78,1.56,0,3.19-.18,4.91-.54,1.71-.36,3.27-.94,4.67-1.71,1.4-.78,2.57-1.82,3.51-3.12.94-1.3,1.4-2.93,1.4-4.91,0-3.32-2.21-5.82-6.62-7.48-4.42-1.66-10.57-3.32-18.47-4.99-3.22-.73-6.36-1.58-9.43-2.57-3.06-.99-5.79-2.28-8.18-3.9-2.39-1.61-4.31-3.63-5.77-6.08-1.46-2.44-2.18-5.43-2.18-8.96,0-5.19,1.01-9.45,3.04-12.78,2.03-3.32,4.7-5.95,8.02-7.87,3.32-1.92,7.06-3.27,11.22-4.05,4.15-.78,8.41-1.17,12.78-1.17s8.59.42,12.7,1.25c4.1.83,7.77,2.23,10.99,4.21,3.22,1.98,5.89,4.6,8.02,7.87,2.13,3.27,3.4,7.4,3.82,12.39h-21.04c-.31-4.26-1.92-7.14-4.83-8.65-2.91-1.5-6.34-2.26-10.28-2.26-1.25,0-2.6.08-4.05.23-1.46.16-2.78.49-3.97,1.01-1.2.52-2.21,1.27-3.04,2.26-.83.99-1.25,2.31-1.25,3.97,0,1.97.73,3.58,2.18,4.83,1.45,1.25,3.35,2.26,5.69,3.04s5.01,1.48,8.02,2.1c3.01.62,6.08,1.3,9.19,2.03,3.22.73,6.36,1.61,9.43,2.65,3.06,1.04,5.79,2.41,8.18,4.13,2.39,1.71,4.31,3.84,5.77,6.39,1.45,2.55,2.18,5.69,2.18,9.43,0,5.3-1.07,9.74-3.19,13.32-2.13,3.58-4.91,6.47-8.34,8.65-3.43,2.18-7.35,3.71-11.76,4.6-4.42.88-8.91,1.32-13.48,1.32s-9.25-.47-13.71-1.4c-4.47-.93-8.44-2.49-11.92-4.67-3.48-2.18-6.34-5.06-8.57-8.65-2.23-3.58-3.45-8.08-3.66-13.48h21.04c0,2.39.49,4.44,1.48,6.15Z"/>
    <path class="cls-2" d="m267.62,277.1c.99,1.71,2.26,3.12,3.82,4.21s3.35,1.9,5.38,2.41c2.03.52,4.13.78,6.31.78,1.56,0,3.19-.18,4.91-.54,1.71-.36,3.27-.94,4.67-1.71s2.57-1.82,3.51-3.12c.94-1.3,1.4-2.93,1.4-4.91,0-3.32-2.21-5.82-6.62-7.48-4.42-1.66-10.57-3.32-18.46-4.99-3.22-.73-6.37-1.58-9.43-2.57-3.07-.99-5.79-2.28-8.18-3.9-2.39-1.61-4.31-3.63-5.76-6.08-1.46-2.44-2.18-5.43-2.18-8.96,0-5.19,1.01-9.45,3.04-12.78,2.03-3.32,4.7-5.95,8.02-7.87,3.32-1.92,7.06-3.27,11.22-4.05,4.15-.78,8.41-1.17,12.78-1.17s8.59.42,12.7,1.25c4.1.83,7.76,2.23,10.99,4.21,3.22,1.98,5.89,4.6,8.02,7.87,2.13,3.27,3.4,7.4,3.82,12.39h-21.04c-.31-4.26-1.92-7.14-4.83-8.65-2.91-1.5-6.34-2.26-10.28-2.26-1.25,0-2.6.08-4.05.23-1.46.16-2.78.49-3.97,1.01-1.2.52-2.21,1.27-3.04,2.26-.83.99-1.25,2.31-1.25,3.97,0,1.97.73,3.58,2.18,4.83,1.45,1.25,3.35,2.26,5.69,3.04s5.01,1.48,8.03,2.1c3.01.62,6.08,1.3,9.19,2.03,3.22.73,6.36,1.61,9.43,2.65,3.06,1.04,5.79,2.41,8.18,4.13,2.39,1.71,4.31,3.84,5.76,6.39,1.45,2.55,2.18,5.69,2.18,9.43,0,5.3-1.07,9.74-3.19,13.32-2.13,3.58-4.91,6.47-8.34,8.65-3.43,2.18-7.35,3.71-11.76,4.6-4.42.88-8.91,1.32-13.48,1.32s-9.25-.47-13.71-1.4c-4.47-.93-8.44-2.49-11.92-4.67-3.48-2.18-6.34-5.06-8.57-8.65-2.24-3.58-3.46-8.08-3.66-13.48h21.04c0,2.39.49,4.44,1.48,6.15Z"/>
  </g>
  <g>
    <path class="cls-2" d="m105.9,69.41c1.85,0,3.25.48,4.2,1.43s1.43,2.28,1.43,4-.47,3.05-1.43,4.01c-.95.96-2.35,1.43-4.2,1.41h-5.6v7.51h-2.44v-18.36h8.05Zm-.82,8.79c1.39.02,2.4-.27,3.05-.85.64-.58.96-1.42.96-2.52s-.32-1.93-.96-2.51c-.64-.57-1.66-.86-3.05-.86h-4.78v6.74h4.78Z"/>
    <path class="cls-2" d="m115.8,74.48v2.8h.05c.53-1.08,1.18-1.88,1.95-2.39.77-.51,1.75-.75,2.93-.72v2.31c-.87,0-1.62.12-2.24.36-.62.24-1.11.59-1.49,1.05-.38.46-.65,1.02-.82,1.68-.17.66-.26,1.42-.26,2.28v5.91h-2.19v-13.29h2.06Z"/>
    <path class="cls-2" d="m131,86.92c-.99.75-2.25,1.13-3.75,1.13-1.06,0-1.98-.17-2.76-.51-.78-.34-1.44-.82-1.97-1.44-.53-.62-.93-1.35-1.2-2.21-.27-.86-.42-1.79-.45-2.8,0-1.01.15-1.94.46-2.78.31-.84.74-1.57,1.3-2.19s1.22-1.1,1.98-1.44c.76-.34,1.6-.51,2.51-.51,1.18,0,2.16.24,2.94.73.78.49,1.4,1.11,1.88,1.86.47.75.8,1.58.98,2.47.18.89.25,1.74.22,2.55h-9.95c-.02.58.05,1.14.21,1.66.16.52.4.99.75,1.39.34.4.78.72,1.31.96.53.24,1.16.36,1.88.36.93,0,1.68-.21,2.28-.64.59-.43.98-1.08,1.17-1.95h2.16c-.29,1.49-.93,2.61-1.93,3.37Zm-.53-8.54c-.2-.46-.46-.86-.8-1.2s-.73-.6-1.18-.8c-.45-.2-.96-.3-1.5-.3s-1.08.1-1.53.3c-.45.2-.84.47-1.17.81-.33.34-.58.74-.77,1.2-.19.45-.3.94-.33,1.45h7.64c-.03-.51-.15-1-.35-1.47Z"/>
    <path class="cls-2" d="m137.32,74.48v1.8h.05c.36-.74.93-1.27,1.7-1.61.77-.33,1.62-.5,2.55-.5,1.03,0,1.92.19,2.69.57.76.38,1.4.89,1.9,1.53.51.64.89,1.38,1.14,2.22.26.84.39,1.73.39,2.67s-.12,1.83-.37,2.67c-.25.84-.63,1.57-1.13,2.2-.51.63-1.14,1.12-1.9,1.48-.76.36-1.65.54-2.66.54-.33,0-.69-.03-1.09-.1-.4-.07-.8-.18-1.2-.33-.39-.15-.77-.36-1.12-.63-.35-.27-.65-.6-.89-.99h-.05v6.84h-2.19v-18.36h2.19Zm7.85,4.72c-.16-.59-.41-1.12-.75-1.58-.33-.46-.76-.83-1.29-1.11-.52-.27-1.14-.41-1.84-.41-.74,0-1.36.15-1.88.44s-.93.67-1.26,1.14c-.33.47-.56,1.01-.71,1.61-.15.6-.22,1.21-.22,1.83,0,.65.08,1.28.23,1.89.15.61.4,1.14.73,1.61s.77.84,1.3,1.12c.53.28,1.17.42,1.93.42s1.38-.15,1.89-.44c.51-.29.91-.68,1.22-1.16.31-.48.53-1.03.67-1.64.14-.62.21-1.25.21-1.9,0-.62-.08-1.22-.24-1.81Z"/>
    <path class="cls-2" d="m161.75,87.72c-.38.22-.9.33-1.57.33-.57,0-1.01-.16-1.35-.48-.33-.32-.5-.84-.5-1.56-.6.72-1.3,1.24-2.1,1.56-.8.32-1.66.48-2.58.48-.6,0-1.17-.07-1.71-.21s-1.01-.35-1.4-.64-.71-.67-.94-1.14c-.23-.47-.35-1.04-.35-1.71,0-.75.13-1.37.39-1.85s.59-.87,1.01-1.17c.42-.3.9-.53,1.44-.68.54-.15,1.09-.28,1.66-.39.6-.12,1.17-.21,1.71-.27.54-.06,1.01-.15,1.43-.26.41-.11.74-.27.98-.49.24-.21.36-.53.36-.94,0-.48-.09-.87-.27-1.16s-.41-.51-.69-.67c-.28-.15-.6-.26-.95-.31s-.7-.08-1.04-.08c-.93,0-1.7.18-2.31.53-.62.35-.95,1.02-1,1.99h-2.19c.03-.82.21-1.52.51-2.08.31-.57.72-1.02,1.23-1.38.51-.35,1.1-.6,1.76-.76.66-.15,1.37-.23,2.12-.23.6,0,1.2.04,1.79.13.59.09,1.13.26,1.61.53.48.27.86.64,1.16,1.12.29.48.44,1.1.44,1.87v6.82c0,.51.03.89.09,1.13.06.24.26.36.6.36.19,0,.41-.03.67-.1v1.7Zm-3.55-6.81c-.27.2-.63.35-1.08.45-.45.09-.91.17-1.4.23-.49.06-.98.13-1.48.2s-.94.2-1.34.37c-.39.17-.72.41-.96.73-.25.32-.37.75-.37,1.29,0,.36.07.66.22.91s.33.45.57.6c.23.15.5.26.81.33.31.07.63.1.98.1.72,0,1.34-.1,1.85-.29s.93-.44,1.26-.74.57-.62.72-.97.23-.68.23-.99v-2.23Z"/>
    <path class="cls-2" d="m165.42,74.48v2.8h.05c.53-1.08,1.18-1.88,1.95-2.39.77-.51,1.75-.75,2.93-.72v2.31c-.87,0-1.62.12-2.24.36-.62.24-1.12.59-1.49,1.05-.38.46-.65,1.02-.82,1.68-.17.66-.26,1.42-.26,2.28v5.91h-2.19v-13.29h2.06Z"/>
    <path class="cls-2" d="m171.8,72.09v-2.67h2.19v2.67h-2.19Zm2.19,2.39v13.29h-2.19v-13.29h2.19Z"/>
    <path class="cls-2" d="m179.1,74.48v2.11h.05c.91-1.61,2.35-2.42,4.32-2.42.87,0,1.6.12,2.19.36.58.24,1.05.57,1.41,1,.36.43.61.94.76,1.53.15.59.22,1.25.22,1.97v8.74h-2.19v-9c0-.82-.24-1.47-.72-1.95s-1.14-.72-1.98-.72c-.67,0-1.25.1-1.74.31-.49.21-.9.5-1.22.87-.33.38-.57.82-.73,1.32-.16.51-.24,1.06-.24,1.66v7.51h-2.19v-13.29h2.06Z"/>
    <path class="cls-2" d="m200.98,91.52c-.99,1.08-2.55,1.62-4.68,1.62-.62,0-1.25-.07-1.89-.21s-1.23-.36-1.75-.67c-.52-.31-.96-.71-1.3-1.21-.34-.5-.53-1.11-.57-1.83h2.19c.02.39.14.73.37,1s.51.5.85.67c.33.17.7.3,1.09.37.39.08.77.12,1.13.12.72,0,1.33-.12,1.83-.37.5-.25.91-.59,1.23-1.03.32-.44.56-.96.71-1.58s.22-1.29.22-2.03v-.87h-.05c-.38.82-.95,1.43-1.71,1.81-.76.39-1.57.58-2.43.58-1,0-1.86-.18-2.6-.54-.74-.36-1.35-.84-1.85-1.45-.5-.61-.87-1.32-1.12-2.13-.25-.81-.37-1.68-.37-2.58,0-.79.1-1.6.31-2.43.21-.83.55-1.58,1.03-2.26.48-.68,1.11-1.23,1.9-1.67.79-.44,1.76-.66,2.9-.66.84,0,1.61.18,2.31.55.7.37,1.25.92,1.65,1.66h.03v-1.9h2.06v12.16c0,2.18-.5,3.81-1.49,4.89Zm-2.79-5.98c.51-.3.91-.69,1.22-1.18.31-.49.54-1.04.68-1.66s.22-1.23.22-1.85c0-.58-.07-1.16-.21-1.72-.14-.57-.36-1.08-.66-1.53s-.69-.82-1.17-1.09c-.48-.27-1.06-.41-1.75-.41s-1.3.13-1.8.4c-.5.27-.9.62-1.22,1.07-.32.45-.55.96-.69,1.54-.15.58-.22,1.19-.22,1.83,0,.6.06,1.2.18,1.8.12.6.32,1.14.62,1.63s.68.88,1.16,1.18c.48.3,1.08.45,1.8.45s1.33-.15,1.84-.45Z"/>
    <path class="cls-2" d="m210.9,76.41v-1.93h2.24v-1.98c0-1.08.31-1.9.94-2.46.63-.56,1.54-.84,2.74-.84.21,0,.44.02.71.05.27.03.5.09.71.15v1.9c-.19-.07-.39-.12-.62-.14-.22-.03-.43-.04-.62-.04-.53,0-.94.1-1.23.31-.29.21-.44.6-.44,1.18v1.85h2.57v1.93h-2.57v11.36h-2.19v-11.36h-2.24Z"/>
    <path class="cls-2" d="m219.21,78.4c.27-.85.69-1.58,1.23-2.21.55-.63,1.23-1.12,2.03-1.48s1.73-.54,2.78-.54,1.99.18,2.79.54,1.47.85,2.02,1.48c.55.63.96,1.36,1.23,2.21.27.85.41,1.76.41,2.74s-.14,1.89-.41,2.73c-.27.84-.69,1.57-1.23,2.2-.55.63-1.22,1.11-2.02,1.47-.8.35-1.73.53-2.79.53s-1.97-.18-2.78-.53c-.81-.35-1.48-.84-2.03-1.47-.55-.63-.96-1.36-1.23-2.2-.27-.84-.41-1.75-.41-2.73s.14-1.89.41-2.74Zm2.22,4.89c.21.63.51,1.15.89,1.57.38.42.82.74,1.32.96.51.22,1.04.33,1.61.33s1.1-.11,1.61-.33c.51-.22.95-.54,1.32-.96s.67-.94.89-1.57c.21-.63.32-1.34.32-2.15s-.11-1.52-.32-2.15c-.21-.63-.51-1.15-.89-1.58s-.82-.75-1.32-.98c-.51-.22-1.04-.33-1.61-.33s-1.1.11-1.61.33c-.51.22-.95.55-1.32.98-.38.43-.67.96-.89,1.58-.21.63-.32,1.34-.32,2.15s.11,1.52.32,2.15Z"/>
    <path class="cls-2" d="m235.92,74.48v2.8h.05c.53-1.08,1.18-1.88,1.95-2.39.77-.51,1.75-.75,2.93-.72v2.31c-.87,0-1.62.12-2.24.36-.62.24-1.11.59-1.49,1.05-.38.46-.65,1.02-.82,1.68-.17.66-.26,1.42-.26,2.28v5.91h-2.19v-13.29h2.06Z"/>
    <path class="cls-2" d="m260.43,72.01c-.93-.65-2.04-.98-3.33-.98-1.1,0-2.04.21-2.82.62-.78.41-1.42.96-1.93,1.66-.51.69-.88,1.49-1.12,2.38-.24.89-.36,1.82-.36,2.78,0,1.05.12,2.04.36,2.97.24.93.61,1.75,1.12,2.44.51.69,1.15,1.25,1.94,1.66.79.41,1.73.62,2.83.62.8,0,1.52-.13,2.15-.4.63-.27,1.16-.63,1.62-1.11.45-.47.81-1.03,1.07-1.68.26-.65.41-1.35.46-2.11h2.44c-.24,2.31-1.04,4.11-2.39,5.4-1.35,1.29-3.2,1.93-5.55,1.93-1.42,0-2.67-.24-3.73-.73-1.06-.49-1.95-1.16-2.65-2.02-.7-.86-1.23-1.87-1.58-3.03-.35-1.17-.53-2.42-.53-3.75s.19-2.59.57-3.77c.38-1.17.93-2.2,1.66-3.07s1.64-1.56,2.73-2.07c1.09-.51,2.34-.76,3.74-.76.96,0,1.87.13,2.73.39.86.26,1.62.63,2.29,1.13.67.5,1.23,1.12,1.67,1.86.45.75.74,1.61.87,2.58h-2.44c-.27-1.3-.88-2.28-1.81-2.93Z"/>
    <path class="cls-2" d="m266.9,78.4c.27-.85.69-1.58,1.23-2.21.55-.63,1.22-1.12,2.03-1.48.8-.36,1.73-.54,2.78-.54s1.99.18,2.79.54,1.47.85,2.02,1.48c.55.63.96,1.36,1.23,2.21s.41,1.76.41,2.74-.14,1.89-.41,2.73-.69,1.57-1.23,2.2c-.55.63-1.22,1.11-2.02,1.47-.8.35-1.73.53-2.79.53s-1.97-.18-2.78-.53c-.81-.35-1.48-.84-2.03-1.47-.55-.63-.96-1.36-1.23-2.2s-.41-1.75-.41-2.73.14-1.89.41-2.74Zm2.22,4.89c.21.63.51,1.15.89,1.57.38.42.82.74,1.32.96.51.22,1.04.33,1.61.33s1.1-.11,1.61-.33c.51-.22.95-.54,1.32-.96.38-.42.67-.94.89-1.57.21-.63.32-1.34.32-2.15s-.11-1.52-.32-2.15c-.21-.63-.51-1.15-.89-1.58-.38-.43-.82-.75-1.32-.98-.51-.22-1.04-.33-1.61-.33s-1.1.11-1.61.33c-.51.22-.95.55-1.32.98-.38.43-.67.96-.89,1.58-.21.63-.32,1.34-.32,2.15s.11,1.52.32,2.15Z"/>
    <path class="cls-2" d="m283.95,69.41v18.36h-2.19v-18.36h2.19Z"/>
    <path class="cls-2" d="m289.32,69.41v18.36h-2.19v-18.36h2.19Z"/>
    <path class="cls-2" d="m301.79,86.92c-.99.75-2.25,1.13-3.75,1.13-1.06,0-1.98-.17-2.76-.51-.78-.34-1.44-.82-1.97-1.44-.53-.62-.93-1.35-1.2-2.21-.27-.86-.42-1.79-.45-2.8,0-1.01.15-1.94.46-2.78.31-.84.74-1.57,1.3-2.19s1.22-1.1,1.98-1.44c.76-.34,1.6-.51,2.51-.51,1.18,0,2.16.24,2.94.73.78.49,1.4,1.11,1.88,1.86.47.75.8,1.58.98,2.47.18.89.25,1.74.22,2.55h-9.95c-.02.58.05,1.14.21,1.66.16.52.4.99.75,1.39.34.4.78.72,1.31.96.53.24,1.16.36,1.88.36.93,0,1.68-.21,2.28-.64.59-.43.98-1.08,1.17-1.95h2.16c-.29,1.49-.93,2.61-1.93,3.37Zm-.53-8.54c-.2-.46-.46-.86-.8-1.2s-.73-.6-1.18-.8c-.45-.2-.96-.3-1.5-.3s-1.08.1-1.53.3c-.45.2-.84.47-1.17.81-.33.34-.58.74-.77,1.2-.19.45-.3.94-.33,1.45h7.64c-.03-.51-.15-1-.35-1.47Z"/>
    <path class="cls-2" d="m315.83,91.52c-1,1.08-2.55,1.62-4.68,1.62-.62,0-1.25-.07-1.89-.21-.64-.14-1.23-.36-1.75-.67-.52-.31-.96-.71-1.3-1.21-.34-.5-.53-1.11-.57-1.83h2.19c.02.39.14.73.37,1s.51.5.85.67c.33.17.7.3,1.09.37.39.08.77.12,1.13.12.72,0,1.33-.12,1.83-.37.5-.25.91-.59,1.23-1.03.32-.44.56-.96.71-1.58.15-.62.22-1.29.22-2.03v-.87h-.05c-.38.82-.95,1.43-1.71,1.81-.76.39-1.57.58-2.43.58-.99,0-1.86-.18-2.6-.54-.74-.36-1.35-.84-1.85-1.45-.5-.61-.87-1.32-1.12-2.13-.25-.81-.37-1.68-.37-2.58,0-.79.1-1.6.31-2.43.21-.83.55-1.58,1.03-2.26.48-.68,1.11-1.23,1.9-1.67s1.76-.66,2.9-.66c.84,0,1.61.18,2.31.55.7.37,1.25.92,1.64,1.66h.03v-1.9h2.06v12.16c0,2.18-.5,3.81-1.49,4.89Zm-2.79-5.98c.51-.3.91-.69,1.22-1.18s.54-1.04.68-1.66c.15-.62.22-1.23.22-1.85,0-.58-.07-1.16-.21-1.72-.14-.57-.36-1.08-.66-1.53-.3-.45-.69-.82-1.17-1.09-.48-.27-1.06-.41-1.75-.41s-1.3.13-1.8.4c-.5.27-.9.62-1.22,1.07s-.55.96-.69,1.54c-.15.58-.22,1.19-.22,1.83,0,.6.06,1.2.18,1.8.12.6.33,1.14.62,1.63s.68.88,1.16,1.18c.48.3,1.08.45,1.8.45s1.33-.15,1.84-.45Z"/>
    <path class="cls-2" d="m329.68,86.92c-.99.75-2.25,1.13-3.75,1.13-1.06,0-1.98-.17-2.76-.51-.78-.34-1.44-.82-1.97-1.44-.53-.62-.93-1.35-1.2-2.21-.27-.86-.42-1.79-.45-2.8,0-1.01.15-1.94.46-2.78.31-.84.74-1.57,1.3-2.19s1.22-1.1,1.98-1.44c.76-.34,1.6-.51,2.51-.51,1.18,0,2.16.24,2.94.73.78.49,1.4,1.11,1.88,1.86.47.75.8,1.58.98,2.47.18.89.25,1.74.22,2.55h-9.95c-.02.58.05,1.14.21,1.66.16.52.4.99.75,1.39.34.4.78.72,1.31.96.53.24,1.16.36,1.88.36.93,0,1.68-.21,2.28-.64.59-.43.98-1.08,1.17-1.95h2.16c-.29,1.49-.93,2.61-1.93,3.37Zm-.53-8.54c-.2-.46-.46-.86-.8-1.2s-.73-.6-1.18-.8c-.45-.2-.96-.3-1.5-.3s-1.08.1-1.53.3c-.45.2-.84.47-1.17.81-.33.34-.58.74-.77,1.2-.19.45-.3.94-.33,1.45h7.64c-.03-.51-.15-1-.35-1.47Z"/>
  </g>
</svg>