<?xml version="1.0" encoding="UTF-8"?>
<svg id="Layer_1" data-name="Layer 1" xmlns="http://www.w3.org/2000/svg" xmlns:xlink="http://www.w3.org/1999/xlink" viewBox="0 0 400 400">
  <defs>
    <style>
      .cls-1, .cls-2 {
        fill: none;
      }

      .cls-3 {
        fill: #f47642;
      }

      .cls-4 {
        fill: #002e6d;
      }

      .cls-5 {
        fill: #fff;
      }

      .cls-2 {
        clip-path: url(#clippath);
      }
    </style>
    <clipPath id="clippath">
      <rect class="cls-1" x=".36" y="-121.21" width="400.03" height="521.29"/>
    </clipPath>
  </defs>
  <rect class="cls-3" width="400" height="400"/>
  <g class="cls-2">
    <g>
      <path class="cls-4" d="m53.11,69.19l-11.65-46.8h-.19l-11.46,46.8h-15.31L-3.71.43h15.12l10.88,46.8h.19L34.43.43h14.16l11.75,47.38h.19L71.8.43h14.83l-18.49,68.76h-15.02Z"/>
      <path class="cls-4" d="m81.14,33.51c1.22-3.24,2.95-6,5.2-8.28,2.25-2.28,4.94-4.05,8.09-5.3,3.15-1.25,6.68-1.88,10.59-1.88s7.46.63,10.64,1.88c3.18,1.25,5.89,3.02,8.14,5.3,2.25,2.28,3.98,5.04,5.2,8.28,1.22,3.24,1.83,6.85,1.83,10.83s-.61,7.58-1.83,10.79c-1.22,3.21-2.95,5.96-5.2,8.23-2.25,2.28-4.96,4.03-8.14,5.25-3.18,1.22-6.73,1.83-10.64,1.83s-7.45-.61-10.59-1.83c-3.15-1.22-5.84-2.97-8.09-5.25-2.25-2.28-3.98-5.02-5.2-8.23-1.22-3.21-1.83-6.8-1.83-10.79s.61-7.59,1.83-10.83Zm12.42,16.66c.39,1.89,1.04,3.6,1.97,5.1.93,1.51,2.17,2.71,3.71,3.61,1.54.9,3.47,1.35,5.78,1.35s4.25-.45,5.83-1.35c1.57-.9,2.82-2.1,3.76-3.61.93-1.51,1.59-3.21,1.97-5.1.39-1.89.58-3.84.58-5.83s-.19-3.95-.58-5.87c-.39-1.93-1.04-3.63-1.97-5.1-.93-1.48-2.18-2.68-3.76-3.61-1.57-.93-3.52-1.4-5.83-1.4s-4.24.47-5.78,1.4c-1.54.93-2.78,2.14-3.71,3.61-.93,1.48-1.59,3.18-1.97,5.1-.39,1.93-.58,3.89-.58,5.87s.19,3.93.58,5.83Z"/>
      <path class="cls-4" d="m146.91,19.4v9.25h.19c.64-1.54,1.51-2.97,2.6-4.29,1.09-1.31,2.34-2.44,3.76-3.37,1.41-.93,2.92-1.65,4.53-2.17,1.6-.51,3.27-.77,5.01-.77.9,0,1.89.16,2.99.48v12.71c-.64-.13-1.41-.24-2.31-.34-.9-.1-1.77-.14-2.6-.14-2.5,0-4.62.42-6.36,1.25-1.73.84-3.13,1.97-4.19,3.42-1.06,1.44-1.81,3.13-2.26,5.06-.45,1.93-.67,4.01-.67,6.26v22.44h-13.68V19.4h13Z"/>
      <path class="cls-4" d="m180.52.43v36.88l17.24-17.91h16.18l-18.78,18.3,20.9,31.49h-16.56l-13.68-22.25-5.3,5.1v17.14h-13.68V.43h13.68Z"/>
      <path class="cls-4" d="m243.99,37.03v11.75h-28.99v-11.75h28.99Z"/>
      <path class="cls-4" d="m13.24,92.91v6.36h.19c1.67-2.7,3.79-4.65,6.36-5.88,2.57-1.22,5.39-1.83,8.47-1.83,3.92,0,7.29.74,10.11,2.21,2.82,1.48,5.17,3.44,7.03,5.87,1.86,2.44,3.24,5.28,4.14,8.52.9,3.24,1.35,6.63,1.35,10.16,0,3.34-.45,6.55-1.35,9.63-.9,3.08-2.26,5.81-4.09,8.19-1.83,2.38-4.11,4.27-6.84,5.68-2.73,1.41-5.92,2.12-9.58,2.12-3.08,0-5.92-.63-8.52-1.88-2.6-1.25-4.74-3.1-6.4-5.54h-.19v23.59H.24v-67.22h13Zm17.77,39.49c1.51-.9,2.73-2.07,3.66-3.52.93-1.44,1.59-3.13,1.97-5.06.39-1.93.58-3.88.58-5.87s-.21-3.95-.63-5.87c-.42-1.93-1.11-3.64-2.07-5.15-.96-1.51-2.2-2.73-3.71-3.66-1.51-.93-3.36-1.4-5.54-1.4s-4.13.47-5.63,1.4c-1.51.93-2.73,2.14-3.66,3.61-.93,1.48-1.59,3.18-1.97,5.1-.39,1.93-.58,3.92-.58,5.97s.21,3.95.63,5.87c.42,1.93,1.09,3.61,2.02,5.06.93,1.44,2.17,2.62,3.71,3.52,1.54.9,3.4,1.35,5.59,1.35s4.12-.45,5.63-1.35Z"/>
      <path class="cls-4" d="m67.36,73.94v68.76h-13.68v-68.76h13.68Z"/>
      <path class="cls-4" d="m71.79,108.22c.19-3.21.99-5.87,2.41-7.99,1.41-2.12,3.21-3.82,5.39-5.1,2.18-1.28,4.64-2.2,7.37-2.74,2.73-.54,5.47-.82,8.23-.82,2.5,0,5.04.18,7.61.53,2.57.35,4.91,1.04,7.03,2.07,2.12,1.03,3.85,2.46,5.2,4.29,1.35,1.83,2.02,4.25,2.02,7.27v25.91c0,2.25.13,4.4.39,6.45.26,2.06.71,3.6,1.35,4.62h-13.87c-.26-.77-.47-1.56-.63-2.36-.16-.8-.27-1.62-.34-2.46-2.18,2.25-4.75,3.82-7.7,4.72-2.95.9-5.97,1.35-9.05,1.35-2.38,0-4.59-.29-6.65-.87-2.06-.58-3.85-1.48-5.39-2.7-1.54-1.22-2.74-2.76-3.61-4.62-.87-1.86-1.3-4.08-1.3-6.64,0-2.82.5-5.15,1.49-6.98.99-1.83,2.28-3.29,3.85-4.38,1.57-1.09,3.37-1.91,5.39-2.46,2.02-.54,4.06-.98,6.12-1.3,2.05-.32,4.08-.58,6.07-.77,1.99-.19,3.76-.48,5.3-.87,1.54-.38,2.76-.95,3.66-1.69.9-.74,1.32-1.81,1.25-3.23,0-1.48-.24-2.65-.72-3.52-.48-.87-1.12-1.54-1.93-2.02-.8-.48-1.73-.8-2.79-.96-1.06-.16-2.2-.24-3.42-.24-2.7,0-4.82.58-6.36,1.73-1.54,1.16-2.44,3.08-2.7,5.78h-13.68Zm31.59,10.11c-.58.52-1.3.92-2.17,1.2-.87.29-1.8.53-2.79.72-1,.19-2.04.35-3.13.48-1.09.13-2.18.29-3.27.48-1.03.19-2.04.45-3.03.77-1,.32-1.86.76-2.6,1.3-.74.55-1.33,1.24-1.78,2.07-.45.83-.67,1.89-.67,3.18s.22,2.25.67,3.08c.45.83,1.06,1.49,1.83,1.97.77.48,1.67.82,2.7,1.01,1.03.19,2.09.29,3.18.29,2.7,0,4.78-.45,6.26-1.35,1.48-.9,2.57-1.97,3.27-3.23.71-1.25,1.14-2.52,1.3-3.8.16-1.28.24-2.31.24-3.08v-5.1Z"/>
      <path class="cls-4" d="m145.66,101.86c-2.18,0-4.01.5-5.49,1.49-1.48,1-2.68,2.28-3.61,3.85-.93,1.57-1.59,3.31-1.97,5.2-.39,1.89-.58,3.77-.58,5.63s.19,3.63.58,5.49c.39,1.86,1.01,3.55,1.88,5.06.87,1.51,2.04,2.74,3.52,3.71,1.48.96,3.27,1.44,5.39,1.44,3.27,0,5.79-.91,7.56-2.74,1.77-1.83,2.87-4.29,3.32-7.37h13.19c-.9,6.61-3.47,11.65-7.7,15.12-4.24,3.47-9.66,5.2-16.28,5.2-3.72,0-7.14-.63-10.26-1.88-3.12-1.25-5.76-3-7.95-5.25-2.18-2.25-3.89-4.93-5.1-8.04-1.22-3.11-1.83-6.53-1.83-10.26s.56-7.43,1.69-10.74c1.12-3.31,2.78-6.16,4.96-8.57,2.18-2.41,4.85-4.29,7.99-5.63,3.14-1.35,6.74-2.02,10.79-2.02,2.95,0,5.79.38,8.52,1.16,2.73.77,5.17,1.94,7.32,3.52,2.15,1.57,3.9,3.53,5.25,5.87,1.35,2.34,2.12,5.12,2.31,8.33h-13.39c-.9-5.71-4.27-8.57-10.11-8.57Z"/>
      <path class="cls-4" d="m186.01,130.76c2.05,1.99,5.01,2.99,8.86,2.99,2.76,0,5.14-.69,7.13-2.07,1.99-1.38,3.21-2.84,3.66-4.38h12.04c-1.93,5.97-4.88,10.24-8.86,12.81-3.98,2.57-8.8,3.85-14.45,3.85-3.92,0-7.45-.63-10.59-1.88-3.15-1.25-5.81-3.03-7.99-5.34-2.18-2.31-3.87-5.07-5.06-8.28-1.19-3.21-1.78-6.74-1.78-10.59s.61-7.19,1.83-10.4c1.22-3.21,2.95-5.99,5.2-8.33,2.25-2.34,4.93-4.19,8.04-5.54,3.11-1.35,6.56-2.02,10.35-2.02,4.24,0,7.93.82,11.08,2.46,3.15,1.64,5.73,3.84,7.75,6.6,2.02,2.76,3.48,5.91,4.38,9.44.9,3.53,1.22,7.22.96,11.08h-35.92c.19,4.43,1.32,7.64,3.37,9.63Zm15.46-26.19c-1.64-1.8-4.13-2.7-7.46-2.7-2.18,0-4,.37-5.44,1.11-1.44.74-2.6,1.65-3.47,2.74-.87,1.09-1.48,2.25-1.83,3.47-.35,1.22-.56,2.31-.63,3.27h22.25c-.64-3.47-1.78-6.1-3.42-7.9Z"/>
    </g>
    <g>
      <path class="cls-5" d="m187.77,286.3h-.08c-.24.6-.58,1.17-1.02,1.71-.44.54-.99,1.01-1.63,1.43-.64.42-1.37.75-2.18.98-.81.24-1.7.35-2.67.35-2.14,0-3.8-.46-4.98-1.39-1.18-.93-1.76-2.36-1.76-4.29,0-1.18.24-2.14.71-2.88.47-.75,1.07-1.33,1.78-1.76.72-.43,1.52-.74,2.39-.92.88-.18,1.72-.31,2.53-.39l2.31-.2c1.07-.08,1.91-.2,2.53-.37.61-.17,1.08-.41,1.39-.71s.51-.69.59-1.16c.08-.47.12-1.06.12-1.76,0-.55-.1-1.06-.31-1.53-.21-.47-.54-.89-.98-1.25-.44-.37-1.02-.65-1.73-.86s-1.57-.31-2.59-.31c-1.8,0-3.26.44-4.37,1.33-1.11.89-1.72,2.24-1.82,4.04h-1.49c.1-2.22.82-3.89,2.14-5,1.32-1.11,3.2-1.67,5.63-1.67s4.2.48,5.31,1.43c1.11.95,1.67,2.2,1.67,3.75v11.73c0,.29,0,.58.02.86.01.29.06.55.14.78.08.23.21.43.39.57.18.14.44.22.78.22.26,0,.63-.04,1.1-.12v1.25c-.39.1-.8.16-1.22.16-.6,0-1.08-.08-1.43-.24-.35-.16-.62-.37-.8-.63-.18-.26-.31-.57-.37-.92-.07-.35-.1-.74-.1-1.16v-1.06Zm0-7.45c-.37.44-.92.74-1.67.9-.75.16-1.58.27-2.49.35l-2.51.23c-.73.08-1.46.19-2.2.33-.73.14-1.39.39-1.98.73-.59.34-1.07.8-1.43,1.39-.37.59-.55,1.35-.55,2.29,0,1.49.47,2.6,1.41,3.31.94.72,2.24,1.08,3.88,1.08s3.05-.31,4.04-.92c.99-.61,1.75-1.32,2.27-2.12.52-.8.86-1.57,1-2.31.14-.74.22-1.25.22-1.51v-3.76Z"/>
      <path class="cls-5" d="m192.2,270.14h1.49v4.31h.08c.26-.76.63-1.43,1.12-2.02.48-.59,1.05-1.09,1.69-1.51.64-.42,1.34-.73,2.1-.94.76-.21,1.53-.31,2.31-.31,1.18,0,2.18.14,3,.43.82.29,1.5.67,2.02,1.14.52.47.93,1,1.24,1.59.3.59.52,1.18.65,1.78.13.6.21,1.18.24,1.75.03.56.04,1.05.04,1.47v12.47h-1.49v-12.75c0-.5-.04-1.12-.12-1.88-.08-.76-.31-1.48-.69-2.18-.38-.69-.95-1.29-1.73-1.78-.77-.5-1.84-.74-3.2-.74-1.15,0-2.17.21-3.06.63-.89.42-1.65,1-2.27,1.75-.63.75-1.1,1.63-1.43,2.67-.33,1.03-.49,2.16-.49,3.39v10.9h-1.49v-20.16Z"/>
      <path class="cls-5" d="m226.32,285.99h-.08c-.84,1.59-1.88,2.79-3.14,3.59s-2.78,1.2-4.59,1.2c-1.52,0-2.82-.29-3.92-.86-1.1-.58-2-1.35-2.71-2.31-.71-.97-1.23-2.08-1.57-3.35-.34-1.27-.51-2.59-.51-3.98,0-1.49.18-2.88.55-4.18.37-1.29.92-2.41,1.67-3.35.75-.94,1.68-1.69,2.8-2.24,1.12-.55,2.44-.82,3.96-.82.81,0,1.61.11,2.39.33s1.51.54,2.18.96c.67.42,1.25.94,1.75,1.57.5.63.88,1.33,1.14,2.12h.08v-12.35h1.49v28h-1.49v-4.31Zm-7.49,3.49c1.28,0,2.39-.26,3.31-.78.93-.52,1.7-1.22,2.31-2.08.61-.86,1.07-1.85,1.37-2.96.3-1.11.45-2.24.45-3.39s-.15-2.32-.45-3.43c-.3-1.11-.75-2.1-1.35-2.98-.6-.88-1.38-1.57-2.33-2.1-.95-.52-2.07-.78-3.35-.78s-2.47.25-3.41.76-1.72,1.2-2.33,2.06c-.61.86-1.06,1.86-1.33,2.98-.27,1.12-.41,2.29-.41,3.49s.15,2.32.45,3.43c.3,1.11.76,2.1,1.37,2.96.61.86,1.39,1.55,2.33,2.06.94.51,2.07.76,3.37.76Z"/>
    </g>
    <g>
      <path class="cls-4" d="m207.03,383c.83,1.61,1.94,2.91,3.32,3.9,1.38,1,3,1.73,4.86,2.21,1.86.48,3.79.72,5.78.72,1.35,0,2.79-.11,4.33-.34,1.54-.22,2.99-.66,4.33-1.3,1.35-.64,2.47-1.52,3.37-2.65.9-1.12,1.35-2.55,1.35-4.29,0-1.86-.59-3.37-1.78-4.53-1.19-1.16-2.74-2.12-4.67-2.89-1.93-.77-4.11-1.44-6.55-2.02-2.44-.58-4.91-1.22-7.42-1.93-2.57-.64-5.07-1.43-7.51-2.36-2.44-.93-4.62-2.13-6.55-3.61-1.93-1.48-3.48-3.32-4.67-5.54-1.19-2.21-1.78-4.9-1.78-8.04,0-3.53.75-6.6,2.26-9.2,1.51-2.6,3.48-4.77,5.92-6.5,2.44-1.73,5.2-3.02,8.28-3.85,3.08-.83,6.16-1.25,9.25-1.25,3.59,0,7.05.4,10.35,1.2,3.31.8,6.24,2.1,8.81,3.9,2.57,1.8,4.61,4.09,6.12,6.89,1.51,2.79,2.26,6.18,2.26,10.16h-14.64c-.13-2.05-.56-3.76-1.3-5.1-.74-1.35-1.72-2.41-2.94-3.18-1.22-.77-2.62-1.31-4.19-1.64-1.57-.32-3.29-.48-5.15-.48-1.22,0-2.44.13-3.66.38-1.22.26-2.33.71-3.32,1.35-1,.64-1.81,1.44-2.46,2.41-.64.96-.96,2.18-.96,3.66,0,1.35.26,2.44.77,3.27.51.84,1.52,1.61,3.03,2.31,1.51.71,3.59,1.41,6.26,2.12,2.66.71,6.15,1.61,10.45,2.7,1.28.26,3.07.72,5.34,1.4,2.28.67,4.54,1.75,6.79,3.23,2.25,1.48,4.19,3.45,5.83,5.92,1.64,2.47,2.46,5.63,2.46,9.49,0,3.15-.61,6.07-1.83,8.76-1.22,2.7-3.03,5.02-5.44,6.98-2.41,1.96-5.39,3.48-8.96,4.57-3.56,1.09-7.69,1.64-12.38,1.64-3.79,0-7.46-.47-11.03-1.4s-6.71-2.39-9.44-4.38c-2.73-1.99-4.9-4.53-6.5-7.61-1.61-3.08-2.38-6.74-2.31-10.98h14.64c0,2.31.42,4.27,1.25,5.88Z"/>
      <path class="cls-4" d="m265.68,331.19v36.88l17.24-17.91h16.18l-18.78,18.3,20.9,31.49h-16.56l-13.68-22.25-5.3,5.1v17.14h-13.68v-68.76h13.68Z"/>
      <path class="cls-4" d="m300.63,342.46v-11.27h13.68v11.27h-13.68Zm13.68,7.7v49.79h-13.68v-49.79h13.68Z"/>
      <path class="cls-4" d="m333.38,331.19v68.76h-13.68v-68.76h13.68Z"/>
      <path class="cls-4" d="m352.45,331.19v68.76h-13.68v-68.76h13.68Z"/>
      <path class="cls-4" d="m368.96,387.58c.61,1.06,1.4,1.93,2.36,2.6.96.67,2.07,1.17,3.32,1.49,1.25.32,2.55.48,3.9.48.96,0,1.97-.11,3.03-.34,1.06-.22,2.02-.58,2.89-1.06.87-.48,1.59-1.12,2.17-1.93.58-.8.87-1.81.87-3.03,0-2.05-1.36-3.6-4.09-4.62-2.73-1.03-6.53-2.05-11.41-3.08-1.99-.45-3.93-.98-5.83-1.59-1.89-.61-3.58-1.41-5.06-2.41-1.48-.99-2.66-2.25-3.56-3.76-.9-1.51-1.35-3.35-1.35-5.54,0-3.21.63-5.84,1.88-7.9,1.25-2.05,2.9-3.67,4.96-4.86,2.05-1.19,4.37-2.02,6.93-2.5,2.57-.48,5.2-.72,7.9-.72s5.31.26,7.85.77c2.54.51,4.8,1.38,6.79,2.6,1.99,1.22,3.64,2.84,4.96,4.86,1.32,2.02,2.1,4.57,2.36,7.66h-13c-.19-2.63-1.19-4.41-2.99-5.35-1.8-.93-3.92-1.4-6.36-1.4-.77,0-1.61.05-2.5.14-.9.1-1.72.31-2.46.63-.74.32-1.36.79-1.88,1.4-.51.61-.77,1.43-.77,2.46,0,1.22.45,2.21,1.35,2.99.9.77,2.07,1.4,3.52,1.88,1.44.48,3.1.91,4.96,1.3,1.86.39,3.76.8,5.68,1.25,1.99.45,3.93,1,5.83,1.64,1.89.64,3.58,1.49,5.06,2.55,1.48,1.06,2.66,2.38,3.56,3.95.9,1.57,1.35,3.52,1.35,5.83,0,3.27-.66,6.02-1.97,8.23-1.32,2.21-3.03,4-5.15,5.34s-4.54,2.3-7.27,2.84c-2.73.54-5.51.82-8.33.82s-5.72-.29-8.47-.87c-2.76-.58-5.22-1.54-7.37-2.89-2.15-1.35-3.92-3.13-5.3-5.34-1.38-2.21-2.14-4.99-2.26-8.33h13c0,1.48.3,2.74.91,3.8Z"/>
    </g>
    <g>
      <path class="cls-4" d="m51.53,208.34c.83,1.61,1.94,2.91,3.32,3.9,1.38,1,3,1.73,4.86,2.21,1.86.48,3.79.72,5.78.72,1.35,0,2.79-.11,4.33-.34,1.54-.22,2.99-.66,4.33-1.3,1.35-.64,2.47-1.52,3.37-2.65.9-1.12,1.35-2.55,1.35-4.29,0-1.86-.59-3.37-1.78-4.53-1.19-1.16-2.74-2.12-4.67-2.89-1.93-.77-4.11-1.44-6.55-2.02-2.44-.58-4.91-1.22-7.42-1.93-2.57-.64-5.07-1.43-7.51-2.36-2.44-.93-4.62-2.13-6.55-3.61-1.93-1.48-3.48-3.32-4.67-5.54-1.19-2.21-1.78-4.9-1.78-8.04,0-3.53.75-6.6,2.26-9.2,1.51-2.6,3.48-4.77,5.92-6.5,2.44-1.73,5.2-3.02,8.28-3.85,3.08-.83,6.16-1.25,9.25-1.25,3.59,0,7.05.4,10.35,1.2,3.31.8,6.24,2.1,8.81,3.9,2.57,1.8,4.61,4.09,6.12,6.89,1.51,2.79,2.26,6.18,2.26,10.16h-14.64c-.13-2.05-.56-3.76-1.3-5.1-.74-1.35-1.72-2.41-2.94-3.18-1.22-.77-2.62-1.31-4.19-1.64-1.57-.32-3.29-.48-5.15-.48-1.22,0-2.44.13-3.66.38-1.22.26-2.33.71-3.32,1.35-1,.64-1.81,1.44-2.46,2.41-.64.96-.96,2.18-.96,3.66,0,1.35.26,2.44.77,3.27.51.84,1.52,1.61,3.03,2.31,1.51.71,3.59,1.41,6.26,2.12,2.66.71,6.15,1.61,10.45,2.7,1.28.26,3.07.72,5.34,1.4,2.28.67,4.54,1.75,6.79,3.23,2.25,1.48,4.19,3.45,5.83,5.92,1.64,2.47,2.46,5.63,2.46,9.49,0,3.15-.61,6.07-1.83,8.76-1.22,2.7-3.03,5.02-5.44,6.98-2.41,1.96-5.39,3.48-8.96,4.57-3.56,1.09-7.69,1.64-12.38,1.64-3.79,0-7.46-.47-11.03-1.4s-6.71-2.39-9.44-4.38c-2.73-1.99-4.9-4.53-6.5-7.61-1.61-3.08-2.38-6.74-2.31-10.98h14.64c0,2.31.42,4.27,1.25,5.88Z"/>
      <path class="cls-4" d="m95.54,189.61c1.22-3.24,2.95-6,5.2-8.28,2.25-2.28,4.94-4.05,8.09-5.3,3.15-1.25,6.68-1.88,10.59-1.88s7.46.63,10.64,1.88c3.18,1.25,5.89,3.02,8.14,5.3,2.25,2.28,3.98,5.04,5.2,8.28,1.22,3.24,1.83,6.85,1.83,10.83s-.61,7.58-1.83,10.79c-1.22,3.21-2.95,5.96-5.2,8.23-2.25,2.28-4.96,4.03-8.14,5.25-3.18,1.22-6.73,1.83-10.64,1.83s-7.45-.61-10.59-1.83c-3.15-1.22-5.84-2.97-8.09-5.25-2.25-2.28-3.98-5.02-5.2-8.23-1.22-3.21-1.83-6.8-1.83-10.79s.61-7.59,1.83-10.83Zm12.42,16.66c.39,1.89,1.04,3.6,1.97,5.1.93,1.51,2.17,2.71,3.71,3.61,1.54.9,3.47,1.35,5.78,1.35s4.25-.45,5.83-1.35c1.57-.9,2.82-2.1,3.76-3.61.93-1.51,1.59-3.21,1.97-5.1.39-1.89.58-3.84.58-5.83s-.19-3.95-.58-5.87c-.39-1.93-1.04-3.63-1.97-5.1-.93-1.48-2.18-2.68-3.76-3.61-1.57-.93-3.52-1.4-5.83-1.4s-4.24.47-5.78,1.4c-1.54.93-2.78,2.14-3.71,3.61-.93,1.48-1.59,3.18-1.97,5.1-.39,1.93-.58,3.89-.58,5.87s.19,3.93.58,5.83Z"/>
      <path class="cls-4" d="m143.12,184.65v-9.15h8.19v-3.85c0-4.43,1.38-8.06,4.14-10.88,2.76-2.82,6.93-4.24,12.52-4.24,1.22,0,2.44.05,3.66.14,1.22.1,2.41.18,3.56.24v10.21c-1.61-.19-3.27-.29-5.01-.29-1.86,0-3.19.43-4,1.3-.8.87-1.2,2.33-1.2,4.38v2.99h9.44v9.15h-9.44v40.64h-13.68v-40.64h-8.19Z"/>
      <path class="cls-4" d="m201.96,175.5v9.15h-10.02v24.65c0,2.31.39,3.85,1.16,4.62s2.31,1.16,4.62,1.16c.77,0,1.51-.03,2.21-.1.71-.06,1.38-.16,2.02-.29v10.59c-1.16.19-2.44.32-3.85.38-1.41.06-2.79.1-4.14.1-2.12,0-4.13-.14-6.02-.43-1.89-.29-3.56-.85-5.01-1.69-1.44-.83-2.59-2.02-3.42-3.56-.84-1.54-1.25-3.56-1.25-6.07v-29.37h-8.28v-9.15h8.28v-14.93h13.68v14.93h10.02Z"/>
      <path class="cls-4" d="m245.59,225.29l-8.86-33.42h-.19l-8.47,33.42h-14.16l-15.79-49.79h14.45l9.15,33.8h.19l8.28-33.8h13.29l8.47,33.71h.19l9.15-33.71h14.06l-15.7,49.79h-14.06Z"/>
      <path class="cls-4" d="m274.77,190.82c.19-3.21.99-5.87,2.41-7.99,1.41-2.12,3.21-3.82,5.39-5.1,2.18-1.28,4.64-2.2,7.37-2.74,2.73-.54,5.47-.82,8.23-.82,2.5,0,5.04.18,7.61.53,2.57.35,4.91,1.04,7.03,2.07,2.12,1.03,3.85,2.46,5.2,4.29,1.35,1.83,2.02,4.25,2.02,7.27v25.91c0,2.25.13,4.4.39,6.45.26,2.06.71,3.6,1.35,4.62h-13.87c-.26-.77-.47-1.56-.63-2.36-.16-.8-.27-1.62-.34-2.46-2.18,2.25-4.75,3.82-7.7,4.72-2.95.9-5.97,1.35-9.05,1.35-2.38,0-4.59-.29-6.65-.87-2.06-.58-3.85-1.48-5.39-2.7-1.54-1.22-2.74-2.76-3.61-4.62-.87-1.86-1.3-4.08-1.3-6.64,0-2.82.5-5.15,1.49-6.98.99-1.83,2.28-3.29,3.85-4.38,1.57-1.09,3.37-1.91,5.39-2.46,2.02-.54,4.06-.98,6.12-1.3,2.05-.32,4.08-.58,6.07-.77,1.99-.19,3.76-.48,5.3-.87,1.54-.38,2.76-.95,3.66-1.69.9-.74,1.32-1.81,1.25-3.23,0-1.48-.24-2.65-.72-3.52-.48-.87-1.12-1.54-1.93-2.02-.8-.48-1.73-.8-2.79-.96-1.06-.16-2.2-.24-3.42-.24-2.7,0-4.82.58-6.36,1.73-1.54,1.16-2.44,3.08-2.7,5.78h-13.68Zm31.59,10.11c-.58.52-1.3.92-2.17,1.2-.87.29-1.8.53-2.79.72-1,.19-2.04.35-3.13.48-1.09.13-2.18.29-3.27.48-1.03.19-2.04.45-3.03.77-1,.32-1.86.76-2.6,1.3-.74.55-1.33,1.24-1.78,2.07-.45.83-.67,1.89-.67,3.18s.22,2.25.67,3.08c.45.83,1.06,1.49,1.83,1.97.77.48,1.67.82,2.7,1.01,1.03.19,2.09.29,3.18.29,2.7,0,4.78-.45,6.26-1.35,1.48-.9,2.57-1.97,3.27-3.23.71-1.25,1.14-2.52,1.3-3.8.16-1.28.24-2.31.24-3.08v-5.1Z"/>
      <path class="cls-4" d="m337.84,175.5v9.25h.19c.64-1.54,1.51-2.97,2.6-4.29,1.09-1.31,2.34-2.44,3.76-3.37,1.41-.93,2.92-1.65,4.53-2.17,1.6-.51,3.27-.77,5.01-.77.9,0,1.89.16,2.99.48v12.71c-.64-.13-1.41-.24-2.31-.34-.9-.1-1.77-.14-2.6-.14-2.5,0-4.62.42-6.36,1.25-1.73.84-3.13,1.97-4.19,3.42-1.06,1.44-1.81,3.13-2.26,5.06-.45,1.93-.67,4.01-.67,6.26v22.44h-13.68v-49.79h13Z"/>
      <path class="cls-4" d="m369.43,213.35c2.05,1.99,5.01,2.99,8.86,2.99,2.76,0,5.14-.69,7.13-2.07,1.99-1.38,3.21-2.84,3.66-4.38h12.04c-1.93,5.97-4.88,10.24-8.86,12.81-3.98,2.57-8.8,3.85-14.45,3.85-3.92,0-7.45-.63-10.59-1.88-3.15-1.25-5.81-3.03-7.99-5.34-2.18-2.31-3.87-5.07-5.06-8.28-1.19-3.21-1.78-6.74-1.78-10.59s.61-7.19,1.83-10.4c1.22-3.21,2.95-5.99,5.2-8.33,2.25-2.34,4.93-4.19,8.04-5.54,3.11-1.35,6.56-2.02,10.35-2.02,4.24,0,7.93.82,11.08,2.46,3.15,1.64,5.73,3.84,7.75,6.6,2.02,2.76,3.48,5.91,4.38,9.44.9,3.53,1.22,7.22.96,11.08h-35.92c.19,4.43,1.32,7.64,3.37,9.63Zm15.46-26.19c-1.64-1.8-4.13-2.7-7.46-2.7-2.18,0-4,.37-5.44,1.11-1.44.74-2.6,1.65-3.47,2.74-.87,1.09-1.48,2.25-1.83,3.47-.35,1.22-.56,2.31-.63,3.27h22.25c-.64-3.47-1.78-6.1-3.42-7.9Z"/>
    </g>
  </g>
</svg>